<svg width="320" height="116" viewBox="0 0 320 116" fill="none" xmlns="http://www.w3.org/2000/svg">
<g id="Pointed Arrow=None, Size=Medium, Corners=Smooth, Support Text=Yes" filter="url(#filter0_dd_446_23914)">
<g id="Content">
<path d="M0 12.8C0 8.31958 0 6.07937 0.871948 4.36808C1.63893 2.86278 2.86278 1.63893 4.36808 0.871948C6.07937 0 8.31958 0 12.8 0H307.2C311.68 0 313.921 0 315.632 0.871948C317.137 1.63893 318.361 2.86278 319.128 4.36808C320 6.07937 320 8.31958 320 12.8V103.2C320 107.68 320 109.921 319.128 111.632C318.361 113.137 317.137 114.361 315.632 115.128C313.921 116 311.68 116 307.2 116H12.8C8.31958 116 6.07937 116 4.36808 115.128C2.86278 114.361 1.63893 113.137 0.871948 111.632C0 109.921 0 107.68 0 103.2V12.8Z" fill="white" stroke="black"/>
<g id="content">
<path id="notify_svg_id" d="M15.0043 29V18.8182H16.8487V23.1286H21.5668V18.8182H23.4162V29H21.5668V24.6747H16.8487V29H15.0043ZM28.7234 29.1491C27.9577 29.1491 27.2965 28.9901 26.7397 28.6719C26.1862 28.3504 25.7603 27.8963 25.462 27.3097C25.1637 26.7197 25.0146 26.0253 25.0146 25.2266C25.0146 24.4411 25.1637 23.7517 25.462 23.1584C25.7636 22.5618 26.1845 22.0978 26.7248 21.7663C27.265 21.4316 27.8997 21.2642 28.6289 21.2642C29.0996 21.2642 29.5437 21.3404 29.9613 21.4929C30.3822 21.642 30.7534 21.8741 31.0749 22.1889C31.3997 22.5038 31.6549 22.9048 31.8406 23.392C32.0262 23.8759 32.119 24.4527 32.119 25.1222V25.674H25.8597V24.4609H30.3938C30.3905 24.1162 30.3159 23.8097 30.1701 23.5412C30.0243 23.2694 29.8204 23.0556 29.5586 22.8999C29.3001 22.7441 28.9985 22.6662 28.6538 22.6662C28.2859 22.6662 27.9627 22.7557 27.6843 22.9347C27.4059 23.1103 27.1888 23.3423 27.033 23.6307C26.8806 23.9157 26.8027 24.2289 26.7994 24.5703V25.6293C26.7994 26.0734 26.8806 26.4545 27.043 26.7727C27.2054 27.0876 27.4324 27.3295 27.7241 27.4986C28.0157 27.6643 28.3571 27.7472 28.7482 27.7472C29.0101 27.7472 29.247 27.7107 29.4592 27.6378C29.6713 27.5616 29.8552 27.4505 30.011 27.3047C30.1668 27.1589 30.2844 26.9782 30.364 26.7628L32.0444 26.9517C31.9383 27.3958 31.7362 27.7836 31.4379 28.1151C31.1429 28.4432 30.765 28.6984 30.3043 28.8807C29.8436 29.0597 29.3166 29.1491 28.7234 29.1491ZM33.6415 29V21.3636H35.3865V22.6364H35.4661C35.6053 22.1955 35.8439 21.8558 36.182 21.6172C36.5234 21.3752 36.9128 21.2543 37.3503 21.2543C37.4498 21.2543 37.5608 21.2592 37.6834 21.2692C37.8094 21.2758 37.9138 21.2874 37.9966 21.304V22.9595C37.9204 22.933 37.7994 22.9098 37.6337 22.8899C37.4713 22.8667 37.3139 22.8551 37.1614 22.8551C36.8333 22.8551 36.5383 22.9264 36.2765 23.0689C36.0179 23.2081 35.8141 23.402 35.665 23.6506C35.5158 23.8991 35.4412 24.1858 35.4412 24.5107V29H33.6415ZM42.2585 29.1491C41.4929 29.1491 40.8317 28.9901 40.2749 28.6719C39.7214 28.3504 39.2955 27.8963 38.9972 27.3097C38.6989 26.7197 38.5497 26.0253 38.5497 25.2266C38.5497 24.4411 38.6989 23.7517 38.9972 23.1584C39.2988 22.5618 39.7197 22.0978 40.2599 21.7663C40.8002 21.4316 41.4349 21.2642 42.1641 21.2642C42.6347 21.2642 43.0788 21.3404 43.4964 21.4929C43.9174 21.642 44.2886 21.8741 44.6101 22.1889C44.9349 22.5038 45.1901 22.9048 45.3757 23.392C45.5613 23.8759 45.6541 24.4527 45.6541 25.1222V25.674H39.3949V24.4609H43.929C43.9257 24.1162 43.8511 23.8097 43.7053 23.5412C43.5594 23.2694 43.3556 23.0556 43.0938 22.8999C42.8352 22.7441 42.5336 22.6662 42.1889 22.6662C41.821 22.6662 41.4979 22.7557 41.2195 22.9347C40.9411 23.1103 40.724 23.3423 40.5682 23.6307C40.4157 23.9157 40.3378 24.2289 40.3345 24.5703V25.6293C40.3345 26.0734 40.4157 26.4545 40.5781 26.7727C40.7405 27.0876 40.9676 27.3295 41.2592 27.4986C41.5509 27.6643 41.8923 27.7472 42.2834 27.7472C42.5452 27.7472 42.7822 27.7107 42.9943 27.6378C43.2064 27.5616 43.3904 27.4505 43.5462 27.3047C43.7019 27.1589 43.8196 26.9782 43.8991 26.7628L45.5795 26.9517C45.4735 27.3958 45.2713 27.7836 44.973 28.1151C44.678 28.4432 44.3002 28.6984 43.8395 28.8807C43.3788 29.0597 42.8518 29.1491 42.2585 29.1491ZM50.6493 29V21.3636H52.449V29H50.6493ZM51.5542 20.2798C51.2691 20.2798 51.0239 20.1854 50.8184 19.9964C50.6129 19.8042 50.5101 19.5739 50.5101 19.3054C50.5101 19.0336 50.6129 18.8033 50.8184 18.6143C51.0239 18.4221 51.2691 18.326 51.5542 18.326C51.8425 18.326 52.0878 18.4221 52.29 18.6143C52.4954 18.8033 52.5982 19.0336 52.5982 19.3054C52.5982 19.5739 52.4954 19.8042 52.29 19.9964C52.0878 20.1854 51.8425 20.2798 51.5542 20.2798ZM60.3352 23.3821L58.6946 23.5611C58.6482 23.3954 58.567 23.2396 58.451 23.0938C58.3383 22.9479 58.1858 22.8303 57.9936 22.7408C57.8014 22.6513 57.5661 22.6065 57.2876 22.6065C56.9131 22.6065 56.5982 22.6877 56.343 22.8501C56.0911 23.0125 55.9669 23.223 55.9702 23.4815C55.9669 23.7036 56.0481 23.8842 56.2138 24.0234C56.3828 24.1626 56.6612 24.277 57.049 24.3665L58.3516 24.6449C59.0741 24.8007 59.611 25.0476 59.9624 25.3857C60.317 25.7237 60.496 26.1662 60.4993 26.7131C60.496 27.1937 60.3551 27.6179 60.0767 27.9858C59.8016 28.3504 59.4188 28.6354 58.9283 28.8409C58.4377 29.0464 57.8743 29.1491 57.2379 29.1491C56.3033 29.1491 55.5509 28.9536 54.9808 28.5625C54.4107 28.1681 54.071 27.6196 53.9616 26.9169L55.7166 26.7479C55.7962 27.0926 55.9652 27.3527 56.2237 27.5284C56.4822 27.7041 56.8187 27.7919 57.233 27.7919C57.6605 27.7919 58.0036 27.7041 58.2621 27.5284C58.5239 27.3527 58.6548 27.1357 58.6548 26.8771C58.6548 26.6584 58.5703 26.4777 58.4013 26.3352C58.2356 26.1927 57.977 26.0833 57.6257 26.0071L56.3232 25.7337C55.5907 25.5812 55.0488 25.3243 54.6974 24.9631C54.3461 24.5985 54.1721 24.1378 54.1754 23.581C54.1721 23.1103 54.2997 22.7027 54.5582 22.358C54.8201 22.0099 55.183 21.7415 55.647 21.5526C56.1143 21.3603 56.6529 21.2642 57.2628 21.2642C58.1577 21.2642 58.862 21.4548 59.3757 21.8359C59.8928 22.2171 60.2126 22.7325 60.3352 23.3821ZM67.6534 29.1541C67.1695 29.1541 66.7337 29.0679 66.3459 28.8956C65.9614 28.7199 65.6565 28.4614 65.4311 28.12C65.209 27.7786 65.098 27.3577 65.098 26.8572C65.098 26.4264 65.1776 26.0701 65.3366 25.7884C65.4957 25.5066 65.7128 25.2812 65.9879 25.1122C66.263 24.9432 66.5729 24.8156 66.9176 24.7294C67.2656 24.6399 67.6252 24.5753 67.9964 24.5355C68.4439 24.4891 68.8068 24.4477 69.0852 24.4112C69.3636 24.3714 69.5658 24.3118 69.6918 24.2322C69.821 24.1494 69.8857 24.0218 69.8857 23.8494V23.8196C69.8857 23.4451 69.7746 23.1551 69.5526 22.9496C69.3305 22.7441 69.0107 22.6413 68.593 22.6413C68.1522 22.6413 67.8026 22.7375 67.544 22.9297C67.2888 23.1219 67.1165 23.349 67.027 23.6108L65.3466 23.3722C65.4792 22.9081 65.6979 22.5204 66.0028 22.2088C66.3078 21.8939 66.6806 21.6586 67.1214 21.5028C67.5623 21.3438 68.0495 21.2642 68.5831 21.2642C68.951 21.2642 69.3172 21.3073 69.6818 21.3935C70.0464 21.4796 70.3795 21.6222 70.6811 21.821C70.9827 22.0166 71.2247 22.2834 71.407 22.6214C71.5926 22.9595 71.6854 23.3821 71.6854 23.8892V29H69.9553V27.951H69.8956C69.7862 28.1631 69.6321 28.362 69.4332 28.5476C69.2377 28.7299 68.9908 28.8774 68.6925 28.9901C68.3975 29.0994 68.0511 29.1541 67.6534 29.1541ZM68.1207 27.8317C68.482 27.8317 68.7952 27.7604 69.0604 27.6179C69.3255 27.4721 69.5294 27.2798 69.6719 27.0412C69.8177 26.8026 69.8906 26.5424 69.8906 26.2607V25.3608C69.8343 25.4072 69.7382 25.4503 69.6023 25.4901C69.4697 25.5298 69.3205 25.5646 69.1548 25.5945C68.9891 25.6243 68.825 25.6508 68.6626 25.674C68.5002 25.6972 68.3594 25.7171 68.2401 25.7337C67.9716 25.7701 67.7313 25.8298 67.5192 25.9126C67.3071 25.9955 67.1397 26.1115 67.017 26.2607C66.8944 26.4065 66.8331 26.5954 66.8331 26.8274C66.8331 27.1589 66.9541 27.4091 67.196 27.5781C67.438 27.7472 67.7462 27.8317 68.1207 27.8317ZM80.7809 21.3636V22.7557H76.391V21.3636H80.7809ZM77.4748 19.5341H79.2745V26.7031C79.2745 26.9451 79.311 27.1307 79.3839 27.2599C79.4601 27.3859 79.5595 27.4721 79.6822 27.5185C79.8048 27.5649 79.9407 27.5881 80.0898 27.5881C80.2025 27.5881 80.3053 27.5798 80.3981 27.5632C80.4942 27.5466 80.5671 27.5317 80.6168 27.5185L80.9201 28.9254C80.824 28.9586 80.6864 28.995 80.5075 29.0348C80.3318 29.0746 80.1164 29.0978 79.8612 29.1044C79.4104 29.1177 79.0044 29.0497 78.6431 28.9006C78.2818 28.7481 77.9951 28.5128 77.783 28.1946C77.5742 27.8764 77.4715 27.4787 77.4748 27.0014V19.5341ZM85.535 29.1491C84.7892 29.1491 84.1429 28.9851 83.5961 28.657C83.0492 28.3288 82.6249 27.8698 82.3233 27.2798C82.025 26.6899 81.8759 26.0005 81.8759 25.2116C81.8759 24.4228 82.025 23.7318 82.3233 23.1385C82.6249 22.5452 83.0492 22.0845 83.5961 21.7564C84.1429 21.4283 84.7892 21.2642 85.535 21.2642C86.2807 21.2642 86.927 21.4283 87.4739 21.7564C88.0208 22.0845 88.4434 22.5452 88.7417 23.1385C89.0433 23.7318 89.1941 24.4228 89.1941 25.2116C89.1941 26.0005 89.0433 26.6899 88.7417 27.2798C88.4434 27.8698 88.0208 28.3288 87.4739 28.657C86.927 28.9851 86.2807 29.1491 85.535 29.1491ZM85.5449 27.7074C85.9493 27.7074 86.2873 27.5964 86.5591 27.3743C86.8309 27.1489 87.0331 26.8473 87.1657 26.4695C87.3016 26.0916 87.3695 25.6707 87.3695 25.2067C87.3695 24.7393 87.3016 24.3168 87.1657 23.9389C87.0331 23.5578 86.8309 23.2545 86.5591 23.0291C86.2873 22.8037 85.9493 22.6911 85.5449 22.6911C85.1306 22.6911 84.7859 22.8037 84.5108 23.0291C84.2391 23.2545 84.0352 23.5578 83.8993 23.9389C83.7667 24.3168 83.7005 24.7393 83.7005 25.2067C83.7005 25.6707 83.7667 26.0916 83.8993 26.4695C84.0352 26.8473 84.2391 27.1489 84.5108 27.3743C84.7859 27.5964 85.1306 27.7074 85.5449 27.7074ZM94.0526 29.1491C93.3068 29.1491 92.6605 28.9851 92.1136 28.657C91.5668 28.3288 91.1425 27.8698 90.8409 27.2798C90.5426 26.6899 90.3935 26.0005 90.3935 25.2116C90.3935 24.4228 90.5426 23.7318 90.8409 23.1385C91.1425 22.5452 91.5668 22.0845 92.1136 21.7564C92.6605 21.4283 93.3068 21.2642 94.0526 21.2642C94.7983 21.2642 95.4446 21.4283 95.9915 21.7564C96.5384 22.0845 96.9609 22.5452 97.2592 23.1385C97.5608 23.7318 97.7116 24.4228 97.7116 25.2116C97.7116 26.0005 97.5608 26.6899 97.2592 27.2798C96.9609 27.8698 96.5384 28.3288 95.9915 28.657C95.4446 28.9851 94.7983 29.1491 94.0526 29.1491ZM94.0625 27.7074C94.4669 27.7074 94.8049 27.5964 95.0767 27.3743C95.3485 27.1489 95.5507 26.8473 95.6832 26.4695C95.8191 26.0916 95.8871 25.6707 95.8871 25.2067C95.8871 24.7393 95.8191 24.3168 95.6832 23.9389C95.5507 23.5578 95.3485 23.2545 95.0767 23.0291C94.8049 22.8037 94.4669 22.6911 94.0625 22.6911C93.6482 22.6911 93.3035 22.8037 93.0284 23.0291C92.7566 23.2545 92.5528 23.5578 92.4169 23.9389C92.2843 24.3168 92.218 24.7393 92.218 25.2067C92.218 25.6707 92.2843 26.0916 92.4169 26.4695C92.5528 26.8473 92.7566 27.1489 93.0284 27.3743C93.3035 27.5964 93.6482 27.7074 94.0625 27.7074ZM101.039 18.8182V29H99.2392V18.8182H101.039ZM106.703 21.3636V22.7557H102.313V21.3636H106.703ZM103.397 19.5341H105.196V26.7031C105.196 26.9451 105.233 27.1307 105.306 27.2599C105.382 27.3859 105.481 27.4721 105.604 27.5185C105.727 27.5649 105.863 27.5881 106.012 27.5881C106.124 27.5881 106.227 27.5798 106.32 27.5632C106.416 27.5466 106.489 27.5317 106.539 27.5185L106.842 28.9254C106.746 28.9586 106.608 28.995 106.429 29.0348C106.254 29.0746 106.038 29.0978 105.783 29.1044C105.332 29.1177 104.926 29.0497 104.565 28.9006C104.204 28.7481 103.917 28.5128 103.705 28.1946C103.496 27.8764 103.393 27.4787 103.397 27.0014V19.5341ZM108.208 29V21.3636H110.008V29H108.208ZM109.113 20.2798C108.828 20.2798 108.582 20.1854 108.377 19.9964C108.171 19.8042 108.069 19.5739 108.069 19.3054C108.069 19.0336 108.171 18.8033 108.377 18.6143C108.582 18.4221 108.828 18.326 109.113 18.326C109.401 18.326 109.646 18.4221 109.849 18.6143C110.054 18.8033 110.157 19.0336 110.157 19.3054C110.157 19.5739 110.054 19.8042 109.849 19.9964C109.646 20.1854 109.401 20.2798 109.113 20.2798ZM111.858 31.8636V21.3636H113.628V22.6264H113.733C113.825 22.4408 113.956 22.2436 114.125 22.0348C114.294 21.8227 114.523 21.642 114.811 21.4929C115.1 21.3404 115.468 21.2642 115.915 21.2642C116.505 21.2642 117.037 21.415 117.511 21.7166C117.988 22.0149 118.366 22.4574 118.645 23.044C118.926 23.6274 119.067 24.3433 119.067 25.1918C119.067 26.0303 118.93 26.7429 118.654 27.3295C118.379 27.9162 118.005 28.3636 117.531 28.6719C117.057 28.9801 116.52 29.1342 115.92 29.1342C115.483 29.1342 115.12 29.0613 114.831 28.9155C114.543 28.7696 114.311 28.594 114.135 28.3885C113.963 28.1797 113.829 27.9825 113.733 27.7969H113.658V31.8636H111.858ZM113.623 25.1818C113.623 25.6757 113.693 26.1082 113.832 26.4794C113.975 26.8506 114.178 27.1406 114.444 27.3494C114.712 27.5549 115.037 27.6577 115.418 27.6577C115.816 27.6577 116.149 27.5516 116.417 27.3395C116.686 27.1241 116.888 26.8307 117.024 26.4595C117.163 26.085 117.233 25.6591 117.233 25.1818C117.233 24.7079 117.165 24.2869 117.029 23.919C116.893 23.5511 116.691 
23.2628 116.422 23.054C116.154 22.8452 115.819 22.7408 115.418 22.7408C115.033 22.7408 114.707 22.8419 114.439 23.044C114.17 23.2462 113.966 23.5296 113.827 23.8942C113.691 24.2588 113.623 24.688 113.623 25.1818Z" fill="black"/>

<path id="notify_svg_quotebox_id" d="M15.233 57V46.8182H16.4659V51.3523H21.8949V46.8182H23.1278V57H21.8949V52.446H16.4659V57H15.233ZM28.6388 57.1591C27.9031 57.1591 27.2683 56.9967 26.7347 56.6719C26.2044 56.3438 25.7951 55.8864 25.5067 55.2997C25.2217 54.7098 25.0792 54.0237 25.0792 53.2415C25.0792 52.4593 25.2217 51.7699 25.5067 51.1733C25.7951 50.5734 26.1961 50.1061 26.7099 49.7713C27.2269 49.4332 27.8301 49.2642 28.5195 49.2642C28.9173 49.2642 29.31 49.3305 29.6978 49.4631C30.0856 49.5956 30.4386 49.8111 30.7567 50.1094C31.0749 50.4044 31.3285 50.7955 31.5174 51.2827C31.7063 51.7699 31.8008 52.3698 31.8008 53.0824V53.5795H25.9144V52.5653H30.6076C30.6076 52.1345 30.5214 51.75 30.3491 51.4119C30.18 51.0739 29.9381 50.8071 29.6232 50.6115C29.3117 50.416 28.9438 50.3182 28.5195 50.3182C28.0522 50.3182 27.6478 50.4342 27.3065 50.6662C26.9684 50.8949 26.7082 51.1932 26.5259 51.5611C26.3436 51.929 26.2525 52.3234 26.2525 52.7443V53.4205C26.2525 53.9972 26.3519 54.486 26.5508 54.8871C26.753 55.2848 27.033 55.5881 27.391 55.7969C27.7489 56.0024 28.1649 56.1051 28.6388 56.1051C28.9471 56.1051 29.2255 56.062 29.4741 55.9759C29.726 55.8864 29.9431 55.7538 30.1254 55.5781C30.3076 55.3991 30.4485 55.1771 30.5479 54.9119L31.6815 55.2301C31.5621 55.6146 31.3616 55.9527 31.0799 56.2443C30.7982 56.5327 30.4502 56.758 30.0359 56.9205C29.6216 57.0795 29.1559 57.1591 28.6388 57.1591ZM33.5856 57V49.3636H34.7191V50.517H34.7987C34.9379 50.1392 35.1897 49.8326 35.5543 49.5973C35.9189 49.362 36.3299 49.2443 36.7873 49.2443C36.8735 49.2443 36.9812 49.246 37.1104 49.2493C37.2397 49.2526 37.3375 49.2576 37.4038 49.2642V50.4574C37.364 50.4474 37.2728 50.4325 37.1303 50.4126C36.9911 50.3894 36.8436 50.3778 36.6879 50.3778C36.3166 50.3778 35.9852 50.4557 35.6935 50.6115C35.4052 50.764 35.1765 50.9761 35.0075 51.2479C34.8417 51.5163 34.7589 51.8229 34.7589 52.1676V57H33.5856ZM41.7638 57.1591C41.0281 57.1591 40.3933 56.9967 39.8597 56.6719C39.3294 56.3438 38.9201 55.8864 38.6317 55.2997C38.3467 54.7098 38.2042 54.0237 38.2042 53.2415C38.2042 52.4593 38.3467 51.7699 38.6317 51.1733C38.9201 50.5734 39.3211 50.1061 39.8349 49.7713C40.3519 49.4332 40.9551 49.2642 41.6445 49.2642C42.0423 49.2642 42.435 49.3305 42.8228 49.4631C43.2106 49.5956 43.5636 49.8111 43.8817 50.1094C44.1999 50.4044 44.4535 50.7955 44.6424 51.2827C44.8313 51.7699 44.9258 52.3698 44.9258 53.0824V53.5795H39.0394V52.5653H43.7326C43.7326 52.1345 43.6464 51.75 43.4741 51.4119C43.305 51.0739 43.0631 50.8071 42.7482 50.6115C42.4367 50.416 42.0688 50.3182 41.6445 50.3182C41.1772 50.3182 40.7728 50.4342 40.4315 50.6662C40.0934 50.8949 39.8332 51.1932 39.6509 51.5611C39.4686 51.929 39.3775 52.3234 39.3775 52.7443V53.4205C39.3775 53.9972 39.4769 54.486 39.6758 54.8871C39.878 55.2848 40.158 55.5881 40.516 55.7969C40.8739 56.0024 41.2899 56.1051 41.7638 56.1051C42.0721 56.1051 42.3505 56.062 42.5991 55.9759C42.851 55.8864 43.0681 55.7538 43.2504 55.5781C43.4326 55.3991 43.5735 55.1771 43.6729 54.9119L44.8065 55.2301C44.6871 55.6146 44.4866 55.9527 44.2049 56.2443C43.9232 56.5327 43.5752 56.758 43.1609 56.9205C42.7466 57.0795 42.2809 57.1591 41.7638 57.1591ZM50.6481 57V49.3636H51.8214V57H50.6481ZM51.2447 48.0909C51.016 48.0909 50.8188 48.013 50.6531 47.8572C50.4906 47.7015 50.4094 47.5142 50.4094 47.2955C50.4094 47.0767 50.4906 46.8894 50.6531 46.7337C50.8188 46.5779 51.016 46.5 51.2447 46.5C51.4734 46.5 51.6689 46.5779 51.8313 46.7337C51.997 46.8894 52.0799 47.0767 52.0799 47.2955C52.0799 47.5142 51.997 47.7015 51.8313 47.8572C51.6689 48.013 51.4734 48.0909 51.2447 48.0909ZM59.3794 51.0739L58.3255 51.3722C58.2592 51.1965 58.1614 51.0258 58.0321 50.8601C57.9062 50.6911 57.7338 50.5518 57.5151 50.4425C57.2963 50.3331 57.0163 50.2784 56.6749 50.2784C56.2076 50.2784 55.8181 50.3861 55.5066 50.6016C55.1983 50.8137 55.0442 51.0838 55.0442 51.4119C55.0442 51.7036 55.1503 51.9339 55.3624 52.103C55.5745 52.272 55.906 52.4129 56.3567 52.5256L57.4902 52.804C58.173 52.9697 58.6818 53.2232 59.0165 53.5646C59.3513 53.9027 59.5186 54.3385 59.5186 54.8722C59.5186 55.3097 59.3927 55.7008 59.1408 56.0455C58.8922 56.3902 58.5442 56.6619 58.0968 56.8608C57.6493 57.0597 57.129 57.1591 56.5357 57.1591C55.7568 57.1591 55.1122 56.9901 54.6017 56.652C54.0913 56.3139 53.7682 55.8201 53.6323 55.1705L54.7459 54.892C54.852 55.303 55.0525 55.6113 55.3475 55.8168C55.6458 56.0223 56.0352 56.125 56.5158 56.125C57.0627 56.125 57.4969 56.009 57.8184 55.777C58.1432 55.5417 58.3056 55.2599 58.3056 54.9318C58.3056 54.6667 58.2128 54.4446 58.0272 54.2656C57.8416 54.0833 57.5565 53.9474 57.1721 53.858L55.8993 53.5597C55.2 53.3939 54.6863 53.1371 54.3581 52.7891C54.0333 52.4377 53.8709 51.9986 53.8709 51.4716C53.8709 51.0407 53.9919 50.6596 54.2338 50.3281C54.4791 49.9967 54.8122 49.7365 55.2331 49.5476C55.6574 49.3587 56.138 49.2642 56.6749 49.2642C57.4306 49.2642 58.0239 49.4299 58.4547 49.7614C58.8889 50.0928 59.1971 50.5303 59.3794 51.0739ZM70.6314 51.0739L69.5774 51.3722C69.5111 51.1965 69.4134 51.0258 69.2841 50.8601C69.1581 50.6911 68.9858 50.5518 68.767 50.4425C68.5483 50.3331 68.2682 50.2784 67.9268 50.2784C67.4595 50.2784 67.0701 50.3861 66.7585 50.6016C66.4503 50.8137 66.2962 51.0838 66.2962 51.4119C66.2962 51.7036 66.4022 51.9339 66.6143 52.103C66.8265 52.272 67.1579 52.4129 67.6087 52.5256L68.7422 52.804C69.425 52.9697 69.9337 53.2232 70.2685 53.5646C70.6032 53.9027 70.7706 54.3385 70.7706 54.8722C70.7706 55.3097 70.6446 55.7008 70.3928 56.0455C70.1442 56.3902 69.7962 56.6619 69.3487 56.8608C68.9013 57.0597 68.3809 57.1591 67.7876 57.1591C67.0088 57.1591 66.3641 56.9901 65.8537 56.652C65.3433 56.3139 65.0201 55.8201 64.8842 55.1705L65.9979 54.892C66.1039 55.303 66.3045 55.6113 66.5994 55.8168C66.8977 56.0223 67.2872 56.125 67.7678 56.125C68.3146 56.125 68.7488 56.009 69.0703 55.777C69.3951 55.5417 69.5575 55.2599 69.5575 54.9318C69.5575 54.6667 69.4647 54.4446 69.2791 54.2656C69.0935 54.0833 68.8085 53.9474 68.424 53.858L67.1513 53.5597C66.4519 53.3939 65.9382 53.1371 65.6101 52.7891C65.2853 52.4377 65.1229 51.9986 65.1229 51.4716C65.1229 51.0407 65.2438 50.6596 65.4858 50.3281C65.7311 49.9967 66.0642 49.7365 66.4851 49.5476C66.9093 49.3587 67.3899 49.2642 67.9268 49.2642C68.6825 49.2642 69.2758 49.4299 69.7067 49.7614C70.1409 50.0928 70.4491 50.5303 70.6314 51.0739ZM75.639 57.1591C74.9496 57.1591 74.3448 56.995 73.8244 56.6669C73.3074 56.3388 72.903 55.8797 72.6113 55.2898C72.323 54.6998 72.1788 54.0104 72.1788 53.2216C72.1788 52.4261 72.323 51.7318 72.6113 51.1385C72.903 50.5452 73.3074 50.0845 73.8244 49.7564C74.3448 49.4283 74.9496 49.2642 75.639 49.2642C76.3284 49.2642 76.9316 49.4283 77.4487 49.7564C77.969 50.0845 78.3734 50.5452 78.6618 51.1385C78.9534 51.7318 79.0993 52.4261 79.0993 53.2216C79.0993 54.0104 78.9534 54.6998 78.6618 55.2898C78.3734 55.8797 77.969 56.3388 77.4487 56.6669C76.9316 56.995 76.3284 57.1591 75.639 57.1591ZM75.639 56.1051C76.1627 56.1051 76.5936 55.9709 76.9316 55.7024C77.2697 55.4339 77.5199 55.081 77.6824 54.6435C77.8448 54.206 77.926 53.732 77.926 53.2216C77.926 52.7112 77.8448 52.2356 77.6824 51.7947C77.5199 51.3539 77.2697 50.9976 76.9316 50.7259C76.5936 50.4541 76.1627 50.3182 75.639 50.3182C75.1154 50.3182 74.6845 50.4541 74.3464 50.7259C74.0083 50.9976 73.7581 51.3539 73.5957 51.7947C73.4333 52.2356 73.3521 52.7112 73.3521 53.2216C73.3521 53.732 73.4333 54.206 73.5957 54.6435C73.7581 55.081 74.0083 55.4339 74.3464 55.7024C74.6845 55.9709 75.1154 56.1051 75.639 56.1051ZM80.8903 57V49.3636H82.0238V50.5568H82.1232C82.2823 50.1491 82.5392 49.8326 82.8938 49.6072C83.2485 49.3786 83.6744 49.2642 84.1715 49.2642C84.6753 49.2642 85.0946 49.3786 85.4293 49.6072C85.7674 49.8326 86.0309 50.1491 86.2198 50.5568H86.2994C86.4949 50.1624 86.7882 49.8492 87.1793 49.6172C87.5704 49.3819 88.0394 49.2642 88.5863 49.2642C89.2691 49.2642 89.8275 49.478 90.2617 49.9055C90.6959 50.3298 90.913 50.991 90.913 51.8892V57H89.7397V51.8892C89.7397 51.3258 89.5856 50.9231 89.2773 50.6811C88.9691 50.4392 88.6062 50.3182 88.1886 50.3182C87.6516 50.3182 87.2357 50.4806 86.9407 50.8054C86.6457 51.1269 86.4982 51.5346 86.4982 52.0284V57H85.305V51.7699C85.305 51.3357 85.1642 50.986 84.8825 50.7209C84.6007 50.4524 84.2378 50.3182 83.7937 50.3182C83.4888 50.3182 83.2037 50.3994 82.9386 50.5618C82.6767 50.7242 82.4646 50.9496 82.3022 51.2379C82.1431 51.523 82.0636 51.8527 82.0636 52.2273V57H80.8903ZM96.2599 57.1591C95.5241 57.1591 94.8894 56.9967 94.3558 56.6719C93.8255 56.3438 93.4162 55.8864 93.1278 55.2997C92.8428 54.7098 92.7003 54.0237 92.7003 53.2415C92.7003 52.4593 92.8428 51.7699 93.1278 51.1733C93.4162 50.5734 93.8172 50.1061 94.331 49.7713C94.848 49.4332 95.4512 49.2642 96.1406 49.2642C96.5384 49.2642 96.9311 49.3305 97.3189 49.4631C97.7067 49.5956 98.0597 49.8111 98.3778 50.1094C98.696 50.4044 98.9496 50.7955 99.1385 51.2827C99.3274 51.7699 99.4219 52.3698 99.4219 53.0824V53.5795H93.5355V52.5653H98.2287C98.2287 52.1345 98.1425 51.75 97.9702 51.4119C97.8011 51.0739 97.5592 50.8071 97.2443 50.6115C96.9328 50.416 96.5649 50.3182 96.1406 50.3182C95.6733 50.3182 95.2689 50.4342 94.9276 50.6662C94.5895 50.8949 94.3293 51.1932 94.147 51.5611C93.9647 51.929 93.8736 52.3234 93.8736 52.7443V53.4205C93.8736 53.9972 93.973 54.486 94.1719 54.8871C94.3741 55.2848 94.6541 55.5881 95.0121 55.7969C95.37 56.0024 95.786 56.1051 96.2599 56.1051C96.5682 56.1051 96.8466 56.062 97.0952 55.9759C97.3471 55.8864 97.5642 55.7538 97.7464 55.5781C97.9287 55.3991 98.0696 55.1771 98.169 54.9119L99.3026 55.2301C99.1832 55.6146 98.9827 55.9527 98.701 56.2443C98.4193 56.5327 98.0713 56.758 97.657 56.9205C97.2427 57.0795 96.777 57.1591 96.2599 57.1591ZM106.317 52.4062V57H105.144V46.8182H106.317V50.5568H106.417C106.596 50.1624 106.864 49.8492 107.222 49.6172C107.584 49.3819 108.064 49.2642 108.664 49.2642C109.184 49.2642 109.64 49.3686 110.031 49.5774C110.422 49.7829 110.726 50.0994 110.941 50.527C111.16 50.9512 111.269 51.4915 111.269 52.1477V57H110.096V52.2273C110.096 51.6207 109.938 51.1518 109.624 50.8203C109.312 50.4856 108.879 50.3182 108.326 50.3182C107.942 50.3182 107.597 50.3994 107.292 50.5618C106.99 50.7242 106.752 50.9612 106.576 51.2727C106.404 51.5843 106.317 51.9621 106.317 52.4062ZM116.617 57.1591C115.882 57.1591 115.247 56.9967 114.713 56.6719C114.183 56.3438 113.774 55.8864 113.485 55.2997C113.2 54.7098 113.058 54.0237 113.058 53.2415C113.058 52.4593 113.2 51.7699 113.485 51.1733C113.774 50.5734 114.175 50.1061 114.688 49.7713C115.205 49.4332 115.809 49.2642 116.498 49.2642C116.896 49.2642 117.289 49.3305 117.676 49.4631C118.064 49.5956 118.417 49.8111 118.735 50.1094C119.053 50.4044 119.307 50.7955 119.496 51.2827C119.685 51.7699 119.779 52.3698 119.779 53.0824V53.5795H113.893V52.5653H118.586C118.586 52.1345 118.5 51.75 118.328 51.4119C118.159 51.0739 117.917 50.8071 117.602 50.6115C117.29 50.416 116.922 50.3182 116.498 50.3182C116.031 50.3182 115.626 50.4342 115.285 50.6662C114.947 50.8949 114.687 51.1932 114.504 51.5611C114.322 51.929 114.231 52.3234 114.231 52.7443V53.4205C114.231 53.9972 114.33 54.486 114.529 54.8871C114.731 55.2848 115.012 55.5881 115.369 55.7969C115.727 56.0024 116.143 56.1051 116.617 56.1051C116.926 56.1051 117.204 56.062 117.453 55.9759C117.704 55.8864 117.922 55.7538 118.104 55.5781C118.286 55.3991 118.427 55.1771 118.526 54.9119L119.66 55.2301C119.541 55.6146 119.34 55.9527 119.058 56.2443C118.777 56.5327 118.429 56.758 118.014 56.9205C117.6 57.0795 117.134 57.1591 116.617 57.1591ZM122.737 46.8182V57H121.564V46.8182H122.737ZM124.886 59.8636V49.3636H126.02V50.5767H126.159C126.245 50.4441 126.365 50.2751 126.517 50.0696C126.673 49.8608 126.895 49.6752 127.183 49.5128C127.475 49.3471 127.869 49.2642 128.366 49.2642C129.009 49.2642 129.576 49.425 130.067 49.7464C130.557 50.0679 130.94 50.5237 131.215 51.1136C131.49 51.7036 131.628 52.3996 131.628 53.2017C131.628 54.0104 131.49 54.7114 131.215 55.3047C130.94 55.8946 130.559 56.352 130.072 56.6768C129.585 56.9983 129.023 57.1591 128.386 57.1591C127.896 57.1591 127.503 57.0779 127.208 56.9155C126.913 56.7498 126.686 56.5625 126.527 56.3537C126.368 56.1416 126.245 55.9659 126.159 55.8267H126.06V59.8636H124.886ZM126.04 53.1818C126.04 53.7585 126.124 54.2673 126.293 54.7081C126.462 55.1456 126.709 55.4886 127.034 55.7372C127.359 55.9825 127.757 56.1051 128.227 56.1051C128.718 56.1051 129.127 55.9759 129.455 55.7173C129.787 55.4555 130.035 55.1042 130.201 54.6634C130.37 54.2192 130.455 53.7254 130.455 53.1818C130.455 52.6449 130.372 52.161 130.206 51.7301C130.044 51.2959 129.797 50.9529 129.465 50.701C129.137 50.4458 128.724 50.3182 128.227 50.3182C127.75 50.3182 127.349 50.4392 127.024 50.6811C126.699 50.9197 126.454 51.2545 126.288 51.6854C126.123 52.1129 126.04 52.6117 126.04 53.1818ZM136.818 49.3636V50.358H132.702V49.3636H136.818ZM133.935 57V48.3097C133.935 47.8722 134.037 47.5076 134.243 47.2159C134.448 46.9242 134.715 46.7055 135.043 46.5597C135.371 46.4138 135.718 46.3409 136.082 46.3409C136.371 46.3409 136.606 46.3641 136.788 46.4105C136.971 46.4569 137.107 46.5 137.196 46.5398L136.858 47.554C136.798 47.5341 136.715 47.5092 136.609 47.4794C136.507 47.4496 136.371 47.4347 136.202 47.4347C135.814 47.4347 135.534 47.5324 135.362 47.728C135.192 47.9235 135.108 48.2102 135.108 48.5881V57H133.935ZM143.275 53.8778V49.3636H144.448V57H143.275V55.7074H143.195C143.017 56.0952 142.738 56.425 142.36 56.6967C141.982 56.9652 141.505 57.0994 140.928 57.0994C140.451 57.0994 140.027 56.995 139.656 56.7862C139.285 56.5741 138.993 56.2559 138.781 55.8317C138.569 55.4041 138.463 54.8655 138.463 54.2159V49.3636H139.636V54.1364C139.636 54.6932 139.792 55.1373 140.103 55.4688C140.418 55.8002 140.819 55.9659 141.306 55.9659C141.598 55.9659 141.895 55.8913 142.196 55.7422C142.501 55.593 142.756 55.3643 142.962 55.0561C143.171 54.7479 143.275 54.3551 143.275 53.8778ZM147.771 46.8182V57H146.597V46.8182H147.771ZM157.059 57.1591C156.323 57.1591 155.688 56.9967 155.155 56.6719C154.624 56.3438 154.215 55.8864 153.927 55.2997C153.642 54.7098 153.499 54.0237 153.499 53.2415C153.499 52.4593 153.642 51.7699 153.927 51.1733C154.215 50.5734 154.616 50.1061 155.13 49.7713C155.647 49.4332 156.25 49.2642 156.939 49.2642C157.337 49.2642 157.73 49.3305 158.118 49.4631C158.506 49.5956 158.858 49.8111 159.177 50.1094C159.495 50.4044 159.748 50.7955 159.937 51.2827C160.126 51.7699 160.221 52.3698 160.221 53.0824V53.5795H154.334V52.5653H159.028C159.028 52.1345 158.941 51.75 158.769 51.4119C158.6 51.0739 158.358 50.8071 158.043 50.6115C157.732 50.416 157.364 50.3182 156.939 50.3182C156.472 50.3182 156.068 50.4342 155.726 50.6662C155.388 50.8949 155.128 51.1932 154.946 51.5611C154.764 51.929 154.672 52.3234 154.672 52.7443V53.4205C154.672 53.9972 154.772 54.486 154.971 54.8871C155.173 55.2848 155.453 55.5881 155.811 55.7969C156.169 56.0024 156.585 56.1051 157.059 56.1051C157.367 56.1051 157.645 56.062 157.894 55.9759C158.146 55.8864 158.363 55.7538 158.545 55.5781C158.728 55.3991 158.868 55.1771 158.968 54.9119L160.101 55.2301C159.982 55.6146 159.782 55.9527 159.5 56.2443C159.218 56.5327 158.87 56.758 158.456 56.9205C158.041 57.0795 157.576 57.1591 157.059 57.1591ZM162.675 49.3636L164.505 52.4858L166.335 49.3636H167.687L165.221 53.1818L167.687 57H166.335L164.505 54.0369L162.675 57H161.323L163.749 53.1818L161.323 49.3636H162.675ZM169.361 59.8636V49.3636H170.494V50.5767H170.634C170.72 50.4441 170.839 50.2751 170.992 50.0696C171.147 49.8608 171.369 49.6752 171.658 49.5128C171.95 49.3471 172.344 49.2642 172.841 49.2642C173.484 49.2642 174.051 49.425 174.541 49.7464C175.032 50.0679 175.415 50.5237 175.69 51.1136C175.965 51.7036 176.102 52.3996 176.102 53.2017C176.102 54.0104 175.965 54.7114 175.69 55.3047C175.415 55.8946 175.034 56.352 174.546 56.6768C174.059 56.9983 173.497 57.1591 172.861 57.1591C172.37 57.1591 171.978 57.0779 171.683 56.9155C171.388 56.7498 171.161 56.5625 171.002 56.3537C170.843 56.1416 170.72 55.9659 170.634 55.8267H170.534V59.8636H169.361ZM170.514 53.1818C170.514 53.7585 170.599 54.2673 170.768 54.7081C170.937 55.1456 171.184 55.4886 171.509 55.7372C171.834 55.9825 172.231 56.1051 172.702 56.1051C173.192 56.1051 173.602 55.9759 173.93 55.7173C174.261 55.4555 174.51 55.1042 174.676 54.6634C174.845 54.2192 174.929 53.7254 174.929 53.1818C174.929 52.6449 174.846 52.161 174.681 51.7301C174.518 51.2959 174.271 50.9529 173.94 50.701C173.612 50.4458 173.199 50.3182 172.702 50.3182C172.225 50.3182 171.824 50.4392 171.499 50.6811C171.174 50.9197 170.929 51.2545 170.763 51.6854C170.597 52.1129 170.514 52.6117 170.514 53.1818ZM179.066 46.8182V57H177.892V46.8182H179.066ZM183.462 57.179C182.978 57.179 182.539 57.0878 182.144 56.9055C181.75 56.7199 181.437 56.4531 181.205 56.1051C180.973 55.7538 180.857 55.3295 180.857 54.8324C180.857 54.3949 180.943 54.0402 181.115 53.7685C181.287 53.4934 181.518 53.2779 181.806 53.1222C182.094 52.9664 182.413 52.8504 182.761 52.7741C183.112 52.6946 183.465 52.6316 183.82 52.5852C184.284 52.5256 184.66 52.4808 184.948 52.451C185.24 52.4179 185.452 52.3632 185.585 52.2869C185.72 52.2107 185.788 52.0781 185.788 51.8892V51.8494C185.788 51.3589 185.654 50.9777 185.386 50.706C185.121 50.4342 184.718 50.2983 184.178 50.2983C183.617 50.2983 183.178 50.4209 182.86 50.6662C182.542 50.9115 182.318 51.1733 182.189 51.4517L181.075 51.054C181.274 50.59 181.539 50.2287 181.871 49.9702C182.205 49.7083 182.57 49.526 182.964 49.4233C183.362 49.3172 183.753 49.2642 184.138 49.2642C184.383 49.2642 184.665 49.294 184.983 49.3537C185.304 49.41 185.614 49.5277 185.913 49.7067C186.214 49.8857 186.464 50.1558 186.663 50.517C186.862 50.8783 186.962 51.3622 186.962 51.9688V57H185.788V55.9659H185.729C185.649 56.1316 185.517 56.3089 185.331 56.4979C185.145 56.6868 184.898 56.8475 184.59 56.9801C184.282 57.1127 183.906 57.179 183.462 57.179ZM183.641 56.125C184.105 56.125 184.496 56.0339 184.814 55.8516C185.135 55.6693 185.377 55.4339 185.54 55.1456C185.705 54.8572 185.788 54.554 185.788 54.2358V53.1619C185.739 53.2216 185.629 53.2763 185.46 53.326C185.295 53.3724 185.102 53.4138 184.884 53.4503C184.668 53.4834 184.458 53.5133 184.252 53.5398C184.05 53.563 183.886 53.5829 183.76 53.5994C183.455 53.6392 183.17 53.7038 182.905 53.7933C182.643 53.8795 182.431 54.0104 182.268 54.1861C182.109 54.3584 182.03 54.5937 182.03 54.892C182.03 55.2997 182.181 55.608 182.482 55.8168C182.787 56.0223 183.173 56.125 183.641 56.125ZM189.103 57V49.3636H190.276V57H189.103ZM189.7 48.0909C189.471 48.0909 189.274 48.013 189.108 47.8572C188.946 47.7015 188.865 47.5142 188.865 47.2955C188.865 47.0767 188.946 46.8894 189.108 46.7337C189.274 46.5779 189.471 46.5 189.7 46.5C189.928 46.5 190.124 46.5779 190.286 46.7337C190.452 46.8894 190.535 47.0767 190.535 47.2955C190.535 47.5142 190.452 47.7015 190.286 47.8572C190.124 48.013 189.928 48.0909 189.7 48.0909ZM193.599 52.4062V57H192.425V49.3636H193.559V50.5568H193.658C193.837 50.169 194.109 49.8575 194.474 49.6222C194.838 49.3835 195.309 49.2642 195.886 49.2642C196.403 49.2642 196.855 49.3703 197.243 49.5824C197.631 49.7912 197.932 50.1094 198.148 50.5369C198.363 50.9612 198.471 51.4981 198.471 52.1477V57H197.298V52.2273C197.298 51.6274 197.142 51.16 196.83 50.8253C196.519 50.4872 196.091 50.3182 195.548 50.3182C195.173 50.3182 194.838 50.3994 194.543 50.5618C194.252 50.7242 194.021 50.9612 193.852 51.2727C193.683 51.5843 193.599 51.9621 193.599 52.4062ZM203.817 57.1591C203.081 57.1591 202.446 56.9967 201.912 56.6719C201.382 56.3438 200.973 55.8864 200.684 55.2997C200.399 54.7098 200.257 54.0237 200.257 53.2415C200.257 52.4593 200.399 51.7699 200.684 51.1733C200.973 50.5734 201.374 50.1061 201.888 49.7713C202.405 49.4332 203.008 49.2642 203.697 49.2642C204.095 49.2642 204.488 49.3305 204.876 49.4631C205.263 49.5956 205.616 49.8111 205.934 50.1094C206.253 50.4044 206.506 50.7955 206.695 51.2827C206.884 51.7699 206.979 52.3698 206.979 53.0824V53.5795H201.092V52.5653H205.785C205.785 52.1345 205.699 51.75 205.527 51.4119C205.358 51.0739 205.116 50.8071 204.801 50.6115C204.489 50.416 204.122 50.3182 203.697 50.3182C203.23 50.3182 202.826 50.4342 202.484 50.6662C202.146 50.8949 201.886 51.1932 201.704 51.5611C201.521 51.929 201.43 52.3234 201.43 52.7443V53.4205C201.43 53.9972 201.53 54.486 201.729 54.8871C201.931 55.2848 202.211 55.5881 202.569 55.7969C202.927 56.0024 203.343 56.1051 203.817 56.1051C204.125 56.1051 204.403 56.062 204.652 55.9759C204.904 55.8864 205.121 55.7538 205.303 55.5781C205.485 55.3991 205.626 55.1771 205.726 54.9119L206.859 55.2301C206.74 55.6146 206.539 55.9527 206.258 56.2443C205.976 56.5327 205.628 56.758 205.214 56.9205C204.799 57.0795 204.334 57.1591 203.817 57.1591ZM208.763 57V49.3636H209.897V50.517H209.976C210.116 50.1392 210.367 49.8326 210.732 49.5973C211.097 49.362 211.508 49.2443 211.965 49.2443C212.051 49.2443 212.159 49.246 212.288 49.2493C212.417 49.2526 212.515 49.2576 212.581 49.2642V50.4574C212.542 50.4474 212.451 50.4325 212.308 50.4126C212.169 50.3894 212.021 50.3778 211.866 50.3778C211.494 50.3778 211.163 50.4557 210.871 50.6115C210.583 50.764 210.354 50.9761 210.185 51.2479C210.019 51.5163 209.937 51.8229 209.937 52.1676V57H208.763ZM221.231 49.3636V50.358H217.273V49.3636H221.231ZM218.427 47.5341H219.6V54.8125C219.6 55.1439 219.648 55.3925 219.744 55.5582C219.844 55.7206 219.97 55.83 220.122 55.8864C220.278 55.9394 220.442 55.9659 220.614 55.9659C220.744 55.9659 220.85 55.9593 220.933 55.946C221.015 55.9295 221.082 55.9162 221.131 55.9062L221.37 56.9602C221.29 56.9901 221.179 57.0199 221.037 57.0497C220.894 57.0829 220.714 57.0994 220.495 57.0994C220.164 57.0994 219.839 57.0282 219.521 56.8857C219.206 56.7431 218.944 56.526 218.735 56.2344C218.53 55.9427 218.427 55.5748 218.427 55.1307V47.5341ZM226.115 57.1591C225.38 57.1591 224.745 56.9967 224.211 56.6719C223.681 56.3438 223.272 55.8864 222.983 55.2997C222.698 54.7098 222.556 54.0237 222.556 53.2415C222.556 52.4593 222.698 51.7699 222.983 51.1733C223.272 50.5734 223.673 50.1061 224.186 49.7713C224.703 49.4332 225.307 49.2642 225.996 49.2642C226.394 49.2642 226.787 49.3305 227.174 49.4631C227.562 49.5956 227.915 49.8111 228.233 50.1094C228.551 50.4044 228.805 50.7955 228.994 51.2827C229.183 51.7699 229.277 52.3698 229.277 53.0824V53.5795H223.391V52.5653H228.084C228.084 52.1345 227.998 51.75 227.826 51.4119C227.657 51.0739 227.415 50.8071 227.1 50.6115C226.788 50.416 226.42 50.3182 225.996 50.3182C225.529 50.3182 225.124 50.4342 224.783 50.6662C224.445 50.8949 224.185 51.1932 224.002 51.5611C223.82 51.929 223.729 52.3234 223.729 52.7443V53.4205C223.729 53.9972 223.828 54.486 224.027 54.8871C224.23 55.2848 224.51 55.5881 224.868 55.7969C225.225 56.0024 225.641 56.1051 226.115 56.1051C226.424 56.1051 226.702 56.062 226.951 55.9759C227.203 55.8864 227.42 55.7538 227.602 55.5781C227.784 55.3991 227.925 55.1771 228.025 54.9119L229.158 55.2301C229.039 55.6146 228.838 55.9527 228.556 56.2443C228.275 56.5327 227.927 56.758 227.512 56.9205C227.098 57.0795 226.632 57.1591 226.115 57.1591ZM231.732 49.3636L233.562 52.4858L235.391 49.3636H236.743L234.278 53.1818L236.743 57H235.391L233.562 54.0369L231.732 57H230.38L232.806 53.1818L230.38 49.3636H231.732ZM241.739 49.3636V50.358H237.781V49.3636H241.739ZM238.935 47.5341H240.108V54.8125C240.108 55.1439 240.156 55.3925 240.252 55.5582C240.352 55.7206 240.478 55.83 240.63 55.8864C240.786 55.9394 240.95 55.9659 241.122 55.9659C241.251 55.9659 241.357 55.9593 241.44 55.946C241.523 55.9295 241.589 55.9162 241.639 55.9062L241.878 56.9602C241.798 56.9901 241.687 57.0199 241.545 57.0497C241.402 57.0829 241.222 57.0994 241.003 57.0994C240.671 57.0994 240.347 57.0282 240.028 56.8857C239.714 56.7431 239.452 56.526 239.243 56.2344C239.037 55.9427 238.935 55.5748 238.935 55.1307V47.5341ZM250.762 49.3636V50.358H246.805V49.3636H250.762ZM247.958 47.5341H249.131V54.8125C249.131 55.1439 249.179 55.3925 249.276 55.5582C249.375 55.7206 249.501 55.83 249.653 55.8864C249.809 55.9394 249.973 55.9659 250.146 55.9659C250.275 55.9659 250.381 55.9593 250.464 55.946C250.547 55.9295 250.613 55.9162 250.663 55.9062L250.901 56.9602C250.822 56.9901 250.711 57.0199 250.568 57.0497C250.426 57.0829 250.245 57.0994 250.026 57.0994C249.695 57.0994 249.37 57.0282 249.052 56.8857C248.737 56.7431 248.475 56.526 248.266 56.2344C248.061 55.9427 247.958 55.5748 247.958 55.1307V47.5341ZM255.547 57.1591C254.858 57.1591 254.253 56.995 253.733 56.6669C253.216 56.3388 252.811 55.8797 252.52 55.2898C252.231 54.6998 252.087 54.0104 252.087 53.2216C252.087 52.4261 252.231 51.7318 252.52 51.1385C252.811 50.5452 253.216 50.0845 253.733 49.7564C254.253 49.4283 254.858 49.2642 255.547 49.2642C256.237 49.2642 256.84 49.4283 257.357 49.7564C257.877 50.0845 258.282 50.5452 258.57 51.1385C258.862 51.7318 259.007 52.4261 259.007 53.2216C259.007 54.0104 258.862 54.6998 258.57 55.2898C258.282 55.8797 257.877 56.3388 257.357 56.6669C256.84 56.995 256.237 57.1591 255.547 57.1591ZM255.547 56.1051C256.071 56.1051 256.502 55.9709 256.84 55.7024C257.178 55.4339 257.428 55.081 257.591 54.6435C257.753 54.206 257.834 53.732 257.834 53.2216C257.834 52.7112 257.753 52.2356 257.591 51.7947C257.428 51.3539 257.178 50.9976 256.84 50.7259C256.502 50.4541 256.071 50.3182 255.547 50.3182C255.024 50.3182 254.593 50.4541 254.255 50.7259C253.917 50.9976 253.666 51.3539 253.504 51.7947C253.342 52.2356 253.26 52.7112 253.26 53.2216C253.26 53.732 253.342 54.206 253.504 54.6435C253.666 55.081 253.917 55.4339 254.255 55.7024C254.593 55.9709 255.024 56.1051 255.547 56.1051ZM17.321 77.179C16.8371 77.179 16.398 77.0878 16.0036 76.9055C15.6091 76.7199 15.2959 76.4531 15.0639 76.1051C14.8319 75.7538 14.7159 75.3295 14.7159 74.8324C14.7159 74.3949 14.8021 74.0402 14.9744 73.7685C15.1468 73.4934 15.3771 73.2779 15.6655 73.1222C15.9538 72.9664 16.272 72.8504 16.62 72.7741C16.9714 72.6946 17.3243 72.6316 17.679 72.5852C18.143 72.5256 18.5192 72.4808 18.8075 72.451C19.0992 72.4179 19.3113 72.3632 19.4439 72.2869C19.5798 72.2107 19.6477 72.0781 19.6477 71.8892V71.8494C19.6477 71.3589 19.5135 70.9777 19.245 70.706C18.9799 70.4342 18.5772 70.2983 18.0369 70.2983C17.4768 70.2983 17.0376 70.4209 16.7195 70.6662C16.4013 70.9115 16.1776 71.1733 16.0483 71.4517L14.9347 71.054C15.1335 70.59 15.3987 70.2287 15.7301 69.9702C16.0649 69.7083 16.4295 69.526 16.8239 69.4233C17.2216 69.3172 17.6127 69.2642 17.9972 69.2642C18.2424 69.2642 18.5241 69.294 18.8423 69.3537C19.1638 69.41 19.4737 69.5277 19.772 69.7067C20.0736 69.8857 20.3239 70.1558 20.5227 70.517C20.7216 70.8783 20.821 71.3622 20.821 71.9688V77H19.6477V75.9659H19.5881C19.5085 76.1316 19.3759 76.3089 19.1903 76.4979C19.0047 76.6868 18.7578 76.8475 18.4496 76.9801C18.1413 77.1127 17.7652 77.179 17.321 77.179ZM17.5 76.125C17.964 76.125 18.3551 76.0339 18.6733 75.8516C18.9948 75.6693 19.2367 75.4339 19.3991 75.1456C19.5649 74.8572 19.6477 74.554 19.6477 74.2358V73.1619C19.598 73.2216 19.4886 73.2763 19.3196 73.326C19.1539 73.3724 18.9616 73.4138 18.7429 73.4503C18.5275 73.4834 18.317 73.5133 18.1115 73.5398C17.9093 73.563 17.7453 73.5829 17.6193 73.5994C17.3144 73.6392 17.0294 73.7038 16.7642 73.7933C16.5024 73.8795 16.2902 74.0104 16.1278 74.1861C15.9688 74.3584 15.8892 74.5937 15.8892 74.892C15.8892 75.2997 16.04 75.608 16.3416 75.8168C16.6465 76.0223 17.0327 76.125 17.5 76.125ZM28.3716 71.0739L27.3176 71.3722C27.2514 71.1965 27.1536 71.0258 27.0243 70.8601C26.8984 70.6911 26.726 70.5518 26.5073 70.4425C26.2885 70.3331 26.0085 70.2784 25.6671 70.2784C25.1998 70.2784 24.8103 70.3861 24.4988 70.6016C24.1905 70.8137 24.0364 71.0838 24.0364 71.4119C24.0364 71.7036 24.1425 71.9339 24.3546 72.103C24.5667 72.272 24.8981 72.4129 25.3489 72.5256L26.4824 72.804C27.1652 72.9697 27.6739 73.2232 28.0087 73.5646C28.3435 73.9027 28.5108 74.3385 28.5108 74.8722C28.5108 75.3097 28.3849 75.7008 28.133 76.0455C27.8844 76.3902 27.5364 76.6619 27.089 76.8608C26.6415 77.0597 26.1212 77.1591 25.5279 77.1591C24.749 77.1591 24.1043 76.9901 23.5939 76.652C23.0835 76.3139 22.7604 75.8201 22.6245 75.1705L23.7381 74.892C23.8442 75.303 24.0447 75.6113 24.3397 75.8168C24.638 76.0223 25.0274 76.125 25.508 76.125C26.0549 76.125 26.4891 76.009 26.8105 75.777C27.1354 75.5417 27.2978 75.2599 27.2978 74.9318C27.2978 74.6667 27.205 74.4446 27.0194 74.2656C26.8337 74.0833 26.5487 73.9474 26.1642 73.858L24.8915 73.5597C24.1922 73.3939 23.6784 73.1371 23.3503 72.7891C23.0255 72.4377 22.8631 71.9986 22.8631 71.4716C22.8631 71.0407 22.9841 70.6596 23.226 70.3281C23.4713 69.9967 23.8044 69.7365 24.2253 69.5476C24.6496 69.3587 25.1301 69.2642 25.6671 69.2642C26.4228 69.2642 27.016 69.4299 27.4469 69.7614C27.8811 70.0928 28.1893 70.5303 28.3716 71.0739ZM35.6861 71.0739L34.6321 71.3722C34.5658 71.1965 34.468 71.0258 34.3388 70.8601C34.2128 70.6911 34.0405 70.5518 33.8217 70.4425C33.603 70.3331 33.3229 70.2784 32.9815 70.2784C32.5142 70.2784 32.1248 70.3861 31.8132 70.6016C31.505 70.8137 31.3509 71.0838 31.3509 71.4119C31.3509 71.7036 31.4569 71.9339 31.669 72.103C31.8812 72.272 32.2126 72.4129 32.6634 72.5256L33.7969 72.804C34.4796 72.9697 34.9884 73.2232 35.3232 73.5646C35.6579 73.9027 35.8253 74.3385 35.8253 74.8722C35.8253 75.3097 35.6993 75.7008 35.4474 76.0455C35.1989 76.3902 34.8509 76.6619 34.4034 76.8608C33.956 77.0597 33.4356 77.1591 32.8423 77.1591C32.0634 77.1591 31.4188 76.9901 30.9084 76.652C30.398 76.3139 30.0748 75.8201 29.9389 75.1705L31.0526 74.892C31.1586 75.303 31.3591 75.6113 31.6541 75.8168C31.9524 76.0223 32.3419 76.125 32.8224 76.125C33.3693 76.125 33.8035 76.009 34.125 75.777C34.4498 75.5417 34.6122 75.2599 34.6122 74.9318C34.6122 74.6667 34.5194 74.4446 34.3338 74.2656C34.1482 74.0833 33.8632 73.9474 33.4787 73.858L32.206 73.5597C31.5066 73.3939 30.9929 73.1371 30.6648 72.7891C30.34 72.4377 30.1776 71.9986 30.1776 71.4716C30.1776 71.0407 30.2985 70.6596 30.5405 70.3281C30.7857 69.9967 31.1188 69.7365 31.5398 69.5476C31.964 69.3587 32.4446 69.2642 32.9815 69.2642C33.7372 69.2642 34.3305 69.4299 34.7614 69.7614C35.1955 70.0928 35.5038 70.5303 35.6861 71.0739ZM37.5914 77V69.3636H38.7647V77H37.5914ZM38.188 68.0909C37.9593 68.0909 37.7621 68.013 37.5964 67.8572C37.434 67.7015 37.3528 67.5142 37.3528 67.2955C37.3528 67.0767 37.434 66.8894 37.5964 66.7337C37.7621 66.5779 37.9593 66.5 38.188 66.5C38.4167 66.5 38.6123 66.5779 38.7747 66.7337C38.9404 66.8894 39.0233 67.0767 39.0233 67.2955C39.0233 67.5142 38.9404 67.7015 38.7747 67.8572C38.6123 68.013 38.4167 68.0909 38.188 68.0909ZM46.3228 71.0739L45.2688 71.3722C45.2025 71.1965 45.1048 71.0258 44.9755 70.8601C44.8496 70.6911 44.6772 70.5518 44.4585 70.4425C44.2397 70.3331 43.9596 70.2784 43.6183 70.2784C43.1509 70.2784 42.7615 70.3861 42.4499 70.6016C42.1417 70.8137 41.9876 71.0838 41.9876 71.4119C41.9876 71.7036 42.0936 71.9339 42.3058 72.103C42.5179 72.272 42.8493 72.4129 43.3001 72.5256L44.4336 72.804C45.1164 72.9697 45.6251 73.2232 45.9599 73.5646C46.2946 73.9027 46.462 74.3385 46.462 74.8722C46.462 75.3097 46.3361 75.7008 46.0842 76.0455C45.8356 76.3902 45.4876 76.6619 45.0401 76.8608C44.5927 77.0597 44.0723 77.1591 43.479 77.1591C42.7002 77.1591 42.0555 76.9901 41.5451 76.652C41.0347 76.3139 40.7115 75.8201 40.5756 75.1705L41.6893 74.892C41.7953 75.303 41.9959 75.6113 42.2908 75.8168C42.5891 76.0223 42.9786 76.125 43.4592 76.125C44.006 76.125 44.4402 76.009 44.7617 75.777C45.0865 75.5417 45.2489 75.2599 45.2489 74.9318C45.2489 74.6667 45.1561 74.4446 44.9705 74.2656C44.7849 74.0833 44.4999 73.9474 44.1154 73.858L42.8427 73.5597C42.1433 73.3939 41.6296 73.1371 41.3015 72.7891C40.9767 72.4377 40.8143 71.9986 40.8143 71.4716C40.8143 71.0407 40.9353 70.6596 41.1772 70.3281C41.4225 69.9967 41.7556 69.7365 42.1765 69.5476C42.6007 69.3587 43.0813 69.2642 43.6183 69.2642C44.3739 69.2642 44.9672 69.4299 45.3981 69.7614C45.8323 70.0928 46.1405 70.5303 46.3228 71.0739ZM51.5492 69.3636V70.358H47.5918V69.3636H51.5492ZM48.7452 67.5341H49.9185V74.8125C49.9185 75.1439 49.9666 75.3925 50.0627 75.5582C50.1621 75.7206 50.2881 75.83 50.4405 75.8864C50.5963 75.9394 50.7604 75.9659 50.9327 75.9659C51.062 75.9659 51.168 75.9593 51.2509 75.946C51.3337 75.9295 51.4 75.9162 51.4498 75.9062L51.6884 76.9602C51.6088 76.9901 51.4978 77.0199 51.3553 77.0497C51.2128 77.0829 51.0321 77.0994 50.8134 77.0994C50.4819 77.0994 50.1571 77.0282 49.839 76.8857C49.5241 76.7431 49.2623 76.526 49.0534 76.2344C48.848 75.9427 48.7452 75.5748 48.7452 75.1307V67.5341ZM60.3539 77.1591C59.6645 77.1591 59.0596 76.995 58.5392 76.6669C58.0222 76.3388 57.6178 75.8797 57.3262 75.2898C57.0378 74.6998 56.8936 74.0104 56.8936 73.2216C56.8936 72.4261 57.0378 71.7318 57.3262 71.1385C57.6178 70.5452 58.0222 70.0845 58.5392 69.7564C59.0596 69.4283 59.6645 69.2642 60.3539 69.2642C61.0433 69.2642 61.6465 69.4283 62.1635 69.7564C62.6839 70.0845 63.0882 70.5452 63.3766 71.1385C63.6683 71.7318 63.8141 72.4261 63.8141 73.2216C63.8141 74.0104 63.6683 74.6998 63.3766 75.2898C63.0882 75.8797 62.6839 76.3388 62.1635 76.6669C61.6465 76.995 61.0433 77.1591 60.3539 77.1591ZM60.3539 76.1051C60.8775 76.1051 61.3084 75.9709 61.6465 75.7024C61.9846 75.4339 62.2348 75.081 62.3972 74.6435C62.5596 74.206 62.6408 73.732 62.6408 73.2216C62.6408 72.7112 62.5596 72.2356 62.3972 71.7947C62.2348 71.3539 61.9846 70.9976 61.6465 70.7259C61.3084 70.4541 60.8775 70.3182 60.3539 70.3182C59.8302 70.3182 59.3993 70.4541 59.0613 70.7259C58.7232 70.9976 58.473 71.3539 58.3105 71.7947C58.1481 72.2356 58.0669 72.7112 58.0669 73.2216C58.0669 73.732 58.1481 74.206 58.3105 74.6435C58.473 75.081 58.7232 75.4339 59.0613 75.7024C59.3993 75.9709 59.8302 76.1051 60.3539 76.1051ZM65.6051 77V69.3636H66.7386V70.517H66.8182C66.9574 70.1392 67.2093 69.8326 67.5739 69.5973C67.9384 69.362 68.3494 69.2443 68.8068 69.2443C68.893 69.2443 69.0007 69.246 69.13 69.2493C69.2592 69.2526 69.357 69.2576 69.4233 69.2642V70.4574C69.3835 70.4474 69.2924 70.4325 69.1499 70.4126C69.0107 70.3894 68.8632 70.3778 68.7074 70.3778C68.3362 70.3778 68.0047 70.4557 67.7131 70.6115C67.4247 70.764 67.196 70.9761 67.027 71.2479C66.8613 71.5163 66.7784 71.8229 66.7784 72.1676V77H65.6051ZM77.834 80.0227C77.2672 80.0227 76.78 79.9498 76.3723 79.804C75.9647 79.6615 75.6249 79.4725 75.3532 79.2372C75.0847 79.0052 74.8709 78.7566 74.7118 78.4915L75.6465 77.8352C75.7525 77.9744 75.8868 78.1335 76.0492 78.3125C76.2116 78.4948 76.4337 78.6522 76.7154 78.7848C77.0004 78.9207 77.3733 78.9886 77.834 78.9886C78.4505 78.9886 78.9592 78.8395 79.3603 78.5412C79.7613 78.2429 79.9618 77.7756 79.9618 77.1392V75.5881H79.8624C79.7762 75.7273 79.6536 75.8996 79.4945 76.1051C79.3387 76.3073 79.1133 76.4879 78.8184 76.647C78.5267 76.8028 78.1323 76.8807 77.6351 76.8807C77.0186 76.8807 76.4651 76.7348 75.9746 76.4432C75.4874 76.1515 75.1013 75.7273 74.8162 75.1705C74.5345 74.6136 74.3936 73.9375 74.3936 73.142C74.3936 72.3598 74.5312 71.6787 74.8063 71.0987C75.0814 70.5154 75.4642 70.0646 75.9547 69.7464C76.4453 69.425 77.012 69.2642 77.655 69.2642C78.1522 69.2642 78.5466 69.3471 78.8382 69.5128C79.1332 69.6752 79.3586 69.8608 79.5144 70.0696C79.6735 70.2751 79.7961 70.4441 79.8823 70.5767H80.0016V69.3636H81.1351V77.2188C81.1351 77.875 80.986 78.4086 80.6877 78.8196C80.3927 79.2339 79.995 79.5372 79.4945 79.7294C78.9973 79.925 78.4438 80.0227 77.834 80.0227ZM77.7942 75.8267C78.2649 75.8267 78.6626 75.719 78.9874 75.5036C79.3122 75.2881 79.5591 74.9782 79.7282 74.5739C79.8972 74.1695 79.9817 73.6856 79.9817 73.1222C79.9817 72.572 79.8989 72.0864 79.7331 71.6655C79.5674 71.2446 79.3221 70.9148 78.9973 70.6761C78.6725 70.4375 78.2715 70.3182 77.7942 70.3182C77.2971 70.3182 76.8828 70.4441 76.5513 70.696C76.2232 70.9479 75.9763 71.286 75.8105 71.7102C75.6481 72.1345 75.5669 72.6051 75.5669 73.1222C75.5669 73.6525 75.6498 74.1214 75.8155 74.5291C75.9846 74.9335 76.2331 75.2517 76.5613 75.4837C76.8927 75.7124 77.3037 75.8267 77.7942 75.8267ZM88.0953 73.8778V69.3636H89.2686V77H88.0953V75.7074H88.0158C87.8368 76.0952 87.5584 76.425 87.1806 76.6967C86.8027 76.9652 86.3255 77.0994 85.7488 77.0994C85.2715 77.0994 84.8472 76.995 84.476 76.7862C84.1048 76.5741 83.8132 76.2559 83.601 75.8317C83.3889 75.4041 83.2828 74.8655 83.2828 74.2159V69.3636H84.4561V74.1364C84.4561 74.6932 84.6119 75.1373 84.9235 75.4688C85.2383 75.8002 85.6394 75.9659 86.1266 75.9659C86.4183 75.9659 86.7149 75.8913 87.0165 75.7422C87.3214 75.593 87.5766 75.3643 87.7821 75.0561C87.9909 74.7479 88.0953 74.3551 88.0953 73.8778ZM91.4176 77V69.3636H92.5909V77H91.4176ZM92.0142 68.0909C91.7855 68.0909 91.5883 68.013 91.4226 67.8572C91.2602 67.7015 91.179 67.5142 91.179 67.2955C91.179 67.0767 91.2602 66.8894 91.4226 66.7337C91.5883 66.5779 91.7855 66.5 92.0142 66.5C92.2429 66.5 92.4384 66.5779 92.6009 66.7337C92.7666 66.8894 92.8494 67.0767 92.8494 67.2955C92.8494 67.5142 92.7666 67.7015 92.6009 67.8572C92.4384 68.013 92.2429 68.0909 92.0142 68.0909ZM97.6234 77.1591C96.987 77.1591 96.4252 76.9983 95.938 76.6768C95.4508 76.352 95.0697 75.8946 94.7946 75.3047C94.5195 74.7114 94.3819 74.0104 94.3819 73.2017C94.3819 72.3996 94.5195 71.7036 94.7946 71.1136C95.0697 70.5237 95.4525 70.0679 95.943 69.7464C96.4335 69.425 97.0003 69.2642 97.6433 69.2642C98.1404 69.2642 98.5332 69.3471 98.8216 69.5128C99.1132 69.6752 99.3353 69.8608 99.4877 70.0696C99.6435 70.2751 99.7645 70.4441 99.8507 70.5767H99.9501V66.8182H101.123V77H99.9899V75.8267H99.8507C99.7645 75.9659 99.6419 76.1416 99.4828 76.3537C99.3237 76.5625 99.0967 76.7498 98.8017 76.9155C98.5067 77.0779 98.1139 77.1591 97.6234 77.1591ZM97.7825 76.1051C98.2531 76.1051 98.6509 75.9825 98.9757 75.7372C99.3005 75.4886 99.5474 75.1456 99.7164 74.7081C99.8855 74.2673 99.97 73.7585 99.97 73.1818C99.97 72.6117 99.8871 72.1129 99.7214 71.6854C99.5557 71.2545 99.3104 70.9197 98.9856 70.6811C98.6608 70.4392 98.2598 70.3182 97.7825 70.3182C97.2853 70.3182 96.871 70.4458 96.5396 70.701C96.2115 70.9529 95.9645 71.2959 95.7988 71.7301C95.6364 72.161 95.5552 72.6449 95.5552 73.1818C95.5552 73.7254 95.6381 74.2192 95.8038 74.6634C95.9728 75.1042 96.2214 75.4555 96.5495 75.7173C96.881 75.9759 97.292 76.1051 97.7825 76.1051ZM106.637 77.1591C105.901 77.1591 105.266 76.9967 104.733 76.6719C104.202 76.3438 103.793 75.8864 103.505 75.2997C103.22 74.7098 103.077 74.0237 103.077 73.2415C103.077 72.4593 103.22 71.7699 103.505 71.1733C103.793 70.5734 104.194 70.1061 104.708 69.7713C105.225 69.4332 105.828 69.2642 106.518 69.2642C106.915 69.2642 107.308 69.3305 107.696 69.4631C108.084 69.5956 108.437 69.8111 108.755 70.1094C109.073 70.4044 109.327 70.7955 109.515 71.2827C109.704 71.7699 109.799 72.3698 109.799 73.0824V73.5795H103.912V72.5653H108.606C108.606 72.1345 108.519 71.75 108.347 71.4119C108.178 71.0739 107.936 70.8071 107.621 70.6115C107.31 70.416 106.942 70.3182 106.518 70.3182C106.05 70.3182 105.646 70.4342 105.305 70.6662C104.966 70.8949 104.706 71.1932 104.524 71.5611C104.342 71.929 104.251 72.3234 104.251 72.7443V73.4205C104.251 73.9972 104.35 74.486 104.549 74.8871C104.751 75.2848 105.031 75.5881 105.389 75.7969C105.747 76.0024 106.163 76.1051 106.637 76.1051C106.945 76.1051 107.224 76.062 107.472 75.9759C107.724 75.8864 107.941 75.7538 108.123 75.5781C108.306 75.3991 108.447 75.1771 108.546 74.9119L109.68 75.2301C109.56 75.6146 109.36 75.9527 109.078 76.2443C108.796 76.5327 108.448 76.758 108.034 76.9205C107.62 77.0795 107.154 77.1591 106.637 77.1591ZM118.842 69.3636V70.358H114.885V69.3636H118.842ZM116.038 67.5341H117.211V74.8125C117.211 75.1439 117.26 75.3925 117.356 75.5582C117.455 75.7206 117.581 75.83 117.733 75.8864C117.889 75.9394 118.053 75.9659 118.226 75.9659C118.355 75.9659 118.461 75.9593 118.544 75.946C118.627 75.9295 118.693 75.9162 118.743 75.9062L118.981 76.9602C118.902 76.9901 118.791 77.0199 118.648 77.0497C118.506 77.0829 118.325 77.0994 118.106 77.0994C117.775 77.0994 117.45 77.0282 117.132 76.8857C116.817 76.7431 116.555 76.526 116.346 76.2344C116.141 75.9427 116.038 75.5748 116.038 75.1307V67.5341ZM121.944 72.4062V77H120.771V66.8182H121.944V70.5568H122.044C122.223 70.1624 122.491 69.8492 122.849 69.6172C123.211 69.3819 123.691 69.2642 124.291 69.2642C124.811 69.2642 125.267 69.3686 125.658 69.5774C126.049 69.7829 126.353 70.0994 126.568 70.527C126.787 70.9512 126.896 71.4915 126.896 72.1477V77H125.723V72.2273C125.723 71.6207 125.565 71.1518 125.251 70.8203C124.939 70.4856 124.506 70.3182 123.953 70.3182C123.568 70.3182 123.224 70.3994 122.919 70.5618C122.617 70.7242 122.379 70.9612 122.203 71.2727C122.031 71.5843 121.944 71.9621 121.944 72.4062ZM132.244 77.1591C131.509 77.1591 130.874 76.9967 130.34 76.6719C129.81 76.3438 129.401 75.8864 129.112 75.2997C128.827 74.7098 128.685 74.0237 128.685 73.2415C128.685 72.4593 128.827 71.7699 129.112 71.1733C129.401 70.5734 129.802 70.1061 130.315 69.7713C130.832 69.4332 131.436 69.2642 132.125 69.2642C132.523 69.2642 132.915 69.3305 133.303 69.4631C133.691 69.5956 134.044 69.8111 134.362 70.1094C134.68 70.4044 134.934 70.7955 135.123 71.2827C135.312 71.7699 135.406 72.3698 135.406 73.0824V73.5795H129.52V72.5653H134.213C134.213 72.1345 134.127 71.75 133.955 71.4119C133.786 71.0739 133.544 70.8071 133.229 70.6115C132.917 70.416 132.549 70.3182 132.125 70.3182C131.658 70.3182 131.253 70.4342 130.912 70.6662C130.574 70.8949 130.314 71.1932 130.131 71.5611C129.949 71.929 129.858 72.3234 129.858 72.7443V73.4205C129.858 73.9972 129.957 74.486 130.156 74.8871C130.358 75.2848 130.638 75.5881 130.996 75.7969C131.354 76.0024 131.77 76.1051 132.244 76.1051C132.553 76.1051 132.831 76.062 133.08 75.9759C133.331 75.8864 133.549 75.7538 133.731 75.5781C133.913 75.3991 134.054 75.1771 134.153 74.9119L135.287 75.2301C135.168 75.6146 134.967 75.9527 134.685 76.2443C134.404 76.5327 134.056 76.758 133.641 76.9205C133.227 77.0795 132.761 77.1591 132.244 77.1591ZM145.941 73.8778V69.3636H147.114V77H145.941V75.7074H145.862C145.683 76.0952 145.404 76.425 145.026 76.6967C144.648 76.9652 144.171 77.0994 143.594 77.0994C143.117 77.0994 142.693 76.995 142.322 76.7862C141.951 76.5741 141.659 76.2559 141.447 75.8317C141.235 75.4041 141.129 74.8655 141.129 74.2159V69.3636H142.302V74.1364C142.302 74.6932 142.458 75.1373 142.769 75.4688C143.084 75.8002 143.485 75.9659 143.972 75.9659C144.264 75.9659 144.561 75.8913 144.862 75.7422C145.167 75.593 145.422 75.3643 145.628 75.0561C145.837 74.7479 145.941 74.3551 145.941 73.8778ZM154.672 71.0739L153.618 71.3722C153.552 71.1965 153.454 71.0258 153.325 70.8601C153.199 70.6911 153.027 70.5518 152.808 70.4425C152.589 70.3331 152.309 70.2784 151.968 70.2784C151.501 70.2784 151.111 70.3861 150.8 70.6016C150.491 70.8137 150.337 71.0838 150.337 71.4119C150.337 71.7036 150.443 71.9339 150.655 72.103C150.867 72.272 151.199 72.4129 151.65 72.5256L152.783 72.804C153.466 72.9697 153.975 73.2232 154.309 73.5646C154.644 73.9027 154.812 74.3385 154.812 74.8722C154.812 75.3097 154.686 75.7008 154.434 76.0455C154.185 76.3902 153.837 76.6619 153.39 76.8608C152.942 77.0597 152.422 77.1591 151.829 77.1591C151.05 77.1591 150.405 76.9901 149.895 76.652C149.384 76.3139 149.061 75.8201 148.925 75.1705L150.039 74.892C150.145 75.303 150.345 75.6113 150.64 75.8168C150.939 76.0223 151.328 76.125 151.809 76.125C152.356 76.125 152.79 76.009 153.111 75.777C153.436 75.5417 153.599 75.2599 153.599 74.9318C153.599 74.6667 153.506 74.4446 153.32 74.2656C153.135 74.0833 152.849 73.9474 152.465 73.858L151.192 73.5597C150.493 73.3939 149.979 73.1371 149.651 72.7891C149.326 72.4377 149.164 71.9986 149.164 71.4716C149.164 71.0407 149.285 70.6596 149.527 70.3281C149.772 69.9967 150.105 69.7365 150.526 69.5476C150.95 69.3587 151.431 69.2642 151.968 69.2642C152.724 69.2642 153.317 69.4299 153.748 69.7614C154.182 70.0928 154.49 70.5303 154.672 71.0739ZM159.779 77.1591C159.044 77.1591 158.409 76.9967 157.875 76.6719C157.345 76.3438 156.936 75.8864 156.647 75.2997C156.362 74.7098 156.22 74.0237 156.22 73.2415C156.22 72.4593 156.362 71.7699 156.647 71.1733C156.936 70.5734 157.337 70.1061 157.85 69.7713C158.368 69.4332 158.971 69.2642 159.66 69.2642C160.058 69.2642 160.451 69.3305 160.838 69.4631C161.226 69.5956 161.579 69.8111 161.897 70.1094C162.216 70.4044 162.469 70.7955 162.658 71.2827C162.847 71.7699 162.941 72.3698 162.941 73.0824V73.5795H157.055V72.5653H161.748C161.748 72.1345 161.662 71.75 161.49 71.4119C161.321 71.0739 161.079 70.8071 160.764 70.6115C160.452 70.416 160.084 70.3182 159.66 70.3182C159.193 70.3182 158.788 70.4342 158.447 70.6662C158.109 70.8949 157.849 71.1932 157.667 71.5611C157.484 71.929 157.393 72.3234 157.393 72.7443V73.4205C157.393 73.9972 157.493 74.486 157.691 74.8871C157.894 75.2848 158.174 75.5881 158.532 75.7969C158.89 76.0024 159.306 76.1051 159.779 76.1051C160.088 76.1051 160.366 76.062 160.615 75.9759C160.867 75.8864 161.084 75.7538 161.266 75.5781C161.448 75.3991 161.589 75.1771 161.689 74.9119L162.822 75.2301C162.703 75.6146 162.502 75.9527 162.221 76.2443C161.939 76.5327 161.591 76.758 161.176 76.9205C160.762 77.0795 160.297 77.1591 159.779 77.1591ZM164.726 77V69.3636H165.86V70.517H165.939C166.078 70.1392 166.33 69.8326 166.695 69.5973C167.06 69.362 167.471 69.2443 167.928 69.2443C168.014 69.2443 168.122 69.246 168.251 69.2493C168.38 69.2526 168.478 69.2576 168.544 69.2642V70.4574C168.505 70.4474 168.413 70.4325 168.271 70.4126C168.132 70.3894 167.984 70.3778 167.828 70.3778C167.457 70.3778 167.126 70.4557 166.834 70.6115C166.546 70.764 166.317 70.9761 166.148 71.2479C165.982 71.5163 165.9 71.8229 165.9 72.1676V77H164.726ZM173.873 77V69.3636H175.046V77H173.873ZM174.469 68.0909C174.241 68.0909 174.043 68.013 173.878 67.8572C173.715 67.7015 173.634 67.5142 173.634 67.2955C173.634 67.0767 173.715 66.8894 173.878 66.7337C174.043 66.5779 174.241 66.5 174.469 66.5C174.698 66.5 174.894 66.5779 175.056 66.7337C175.222 66.8894 175.305 67.0767 175.305 67.2955C175.305 67.5142 175.222 67.7015 175.056 67.8572C174.894 68.013 174.698 68.0909 174.469 68.0909ZM178.368 72.4062V77H177.195V69.3636H178.328V70.5568H178.428C178.607 70.169 178.879 69.8575 179.243 69.6222C179.608 69.3835 180.078 69.2642 180.655 69.2642C181.172 69.2642 181.625 69.3703 182.012 69.5824C182.4 69.7912 182.702 70.1094 182.917 70.5369C183.133 70.9612 183.24 71.4981 183.24 72.1477V77H182.067V72.2273C182.067 71.6274 181.911 71.16 181.6 70.8253C181.288 70.4872 180.861 70.3182 180.317 70.3182C179.943 70.3182 179.608 70.3994 179.313 70.5618C179.021 70.7242 178.791 70.9612 178.622 71.2727C178.453 71.5843 178.368 71.9621 178.368 72.4062ZM194.134 73.8778V69.3636H195.308V77H194.134V75.7074H194.055C193.876 76.0952 193.597 76.425 193.22 76.6967C192.842 76.9652 192.365 77.0994 191.788 77.0994C191.311 77.0994 190.886 76.995 190.515 76.7862C190.144 76.5741 189.852 76.2559 189.64 75.8317C189.428 75.4041 189.322 74.8655 189.322 74.2159V69.3636H190.495V74.1364C190.495 74.6932 190.651 75.1373 190.963 75.4688C191.277 75.8002 191.678 75.9659 192.166 75.9659C192.457 75.9659 192.754 75.8913 193.056 75.7422C193.36 75.593 193.616 75.3643 193.821 75.0561C194.03 74.7479 194.134 74.3551 194.134 73.8778ZM198.63 72.4062V77H197.457V69.3636H198.59V70.5568H198.69C198.869 70.169 199.14 69.8575 199.505 69.6222C199.87 69.3835 200.34 69.2642 200.917 69.2642C201.434 69.2642 201.886 69.3703 202.274 69.5824C202.662 69.7912 202.964 70.1094 203.179 70.5369C203.394 70.9612 203.502 71.4981 203.502 72.1477V77H202.329V72.2273C202.329 71.6274 202.173 71.16 201.862 70.8253C201.55 70.4872 201.122 70.3182 200.579 70.3182C200.204 70.3182 199.87 70.3994 199.575 70.5618C199.283 70.7242 199.053 70.9612 198.884 71.2727C198.714 71.5843 198.63 71.9621 198.63 72.4062ZM208.53 77.1591C207.893 77.1591 207.331 76.9983 206.844 76.6768C206.357 76.352 205.976 75.8946 205.701 75.3047C205.426 74.7114 205.288 74.0104 205.288 73.2017C205.288 72.3996 205.426 71.7036 205.701 71.1136C205.976 70.5237 206.359 70.0679 206.849 69.7464C207.34 69.425 207.907 69.2642 208.55 69.2642C209.047 69.2642 209.439 69.3471 209.728 69.5128C210.019 69.6752 210.242 69.8608 210.394 70.0696C210.55 70.2751 210.671 70.4441 210.757 70.5767H210.856V66.8182H212.03V77H210.896V75.8267H210.757C210.671 75.9659 210.548 76.1416 210.389 76.3537C210.23 76.5625 210.003 76.7498 209.708 76.9155C209.413 77.0779 209.02 77.1591 208.53 77.1591ZM208.689 76.1051C209.159 76.1051 209.557 75.9825 209.882 75.7372C210.207 75.4886 210.454 75.1456 210.623 74.7081C210.792 74.2673 210.876 73.7585 210.876 73.1818C210.876 72.6117 210.793 72.1129 210.628 71.6854C210.462 71.2545 210.217 70.9197 209.892 70.6811C209.567 70.4392 209.166 70.3182 208.689 70.3182C208.192 70.3182 207.777 70.4458 207.446 70.701C207.118 70.9529 206.871 71.2959 206.705 71.7301C206.543 72.161 206.461 72.6449 206.461 73.1818C206.461 73.7254 206.544 74.2192 206.71 74.6634C206.879 75.1042 207.128 75.4555 207.456 75.7173C207.787 75.9759 208.198 76.1051 208.689 76.1051ZM217.543 77.1591C216.807 77.1591 216.173 76.9967 215.639 76.6719C215.109 76.3438 214.699 75.8864 214.411 75.2997C214.126 74.7098 213.983 74.0237 213.983 73.2415C213.983 72.4593 214.126 71.7699 214.411 71.1733C214.699 70.5734 215.1 70.1061 215.614 69.7713C216.131 69.4332 216.734 69.2642 217.424 69.2642C217.822 69.2642 218.214 69.3305 218.602 69.4631C218.99 69.5956 219.343 69.8111 219.661 70.1094C219.979 70.4044 220.233 70.7955 220.422 71.2827C220.611 71.7699 220.705 72.3698 220.705 73.0824V73.5795H214.819V72.5653H219.512C219.512 72.1345 219.426 71.75 219.253 71.4119C219.084 71.0739 218.842 70.8071 218.528 70.6115C218.216 70.416 217.848 70.3182 217.424 70.3182C216.956 70.3182 216.552 70.4342 216.211 70.6662C215.873 70.8949 215.613 71.1932 215.43 71.5611C215.248 71.929 215.157 72.3234 215.157 72.7443V73.4205C215.157 73.9972 215.256 74.486 215.455 74.8871C215.657 75.2848 215.937 75.5881 216.295 75.7969C216.653 76.0024 217.069 76.1051 217.543 76.1051C217.851 76.1051 218.13 76.062 218.378 75.9759C218.63 75.8864 218.847 75.7538 219.03 75.5781C219.212 75.3991 219.353 75.1771 219.452 74.9119L220.586 75.2301C220.466 75.6146 220.266 75.9527 219.984 76.2443C219.702 76.5327 219.354 76.758 218.94 76.9205C218.526 77.0795 218.06 77.1591 217.543 77.1591ZM222.49 77V69.3636H223.623V70.517H223.703C223.842 70.1392 224.094 69.8326 224.459 69.5973C224.823 69.362 225.234 69.2443 225.692 69.2443C225.778 69.2443 225.885 69.246 226.015 69.2493C226.144 69.2526 226.242 69.2576 226.308 69.2642V70.4574C226.268 70.4474 226.177 70.4325 226.035 70.4126C225.895 70.3894 225.748 70.3778 225.592 70.3778C225.221 70.3778 224.89 70.4557 224.598 70.6115C224.309 70.764 224.081 70.9761 223.912 71.2479C223.746 71.5163 223.663 71.8229 223.663 72.1676V77H222.49ZM233.108 71.0739L232.054 71.3722C231.988 71.1965 231.89 71.0258 231.761 70.8601C231.635 70.6911 231.462 70.5518 231.244 70.4425C231.025 70.3331 230.745 70.2784 230.403 70.2784C229.936 70.2784 229.547 70.3861 229.235 70.6016C228.927 70.8137 228.773 71.0838 228.773 71.4119C228.773 71.7036 228.879 71.9339 229.091 72.103C229.303 72.272 229.634 72.4129 230.085 72.5256L231.219 72.804C231.902 72.9697 232.41 73.2232 232.745 73.5646C233.08 73.9027 233.247 74.3385 233.247 74.8722C233.247 75.3097 233.121 75.7008 232.869 76.0455C232.621 76.3902 232.273 76.6619 231.825 76.8608C231.378 77.0597 230.857 77.1591 230.264 77.1591C229.485 77.1591 228.841 76.9901 228.33 76.652C227.82 76.3139 227.497 75.8201 227.361 75.1705L228.474 74.892C228.58 75.303 228.781 75.6113 229.076 75.8168C229.374 76.0223 229.764 76.125 230.244 76.125C230.791 76.125 231.225 76.009 231.547 75.777C231.872 75.5417 232.034 75.2599 232.034 74.9318C232.034 74.6667 231.941 74.4446 231.756 74.2656C231.57 74.0833 231.285 73.9474 230.901 73.858L229.628 73.5597C228.929 73.3939 228.415 73.1371 228.087 72.7891C227.762 72.4377 227.599 71.9986 227.599 71.4716C227.599 71.0407 227.72 70.6596 227.962 70.3281C228.208 69.9967 228.541 69.7365 228.962 69.5476C229.386 69.3587 229.866 69.2642 230.403 69.2642C231.159 69.2642 231.752 69.4299 232.183 69.7614C232.617 70.0928 232.926 70.5303 233.108 71.0739ZM238.334 69.3636V70.358H234.377V69.3636H238.334ZM235.53 67.5341H236.704V74.8125C236.704 75.1439 236.752 75.3925 236.848 75.5582C236.947 75.7206 237.073 75.83 237.226 75.8864C237.381 75.9394 237.546 75.9659 237.718 75.9659C237.847 75.9659 237.953 75.9593 238.036 75.946C238.119 75.9295 238.185 75.9162 238.235 75.9062L238.474 76.9602C238.394 76.9901 238.283 77.0199 238.14 77.0497C237.998 77.0829 237.817 77.0994 237.599 77.0994C237.267 77.0994 236.942 77.0282 236.624 76.8857C236.309 76.7431 236.047 76.526 235.839 76.2344C235.633 75.9427 235.53 75.5748 235.53 75.1307V67.5341ZM242.346 77.179C241.863 77.179 241.423 77.0878 241.029 76.9055C240.635 76.7199 240.321 76.4531 240.089 76.1051C239.857 75.7538 239.741 75.3295 239.741 74.8324C239.741 74.3949 239.827 74.0402 240 73.7685C240.172 73.4934 240.403 73.2779 240.691 73.1222C240.979 72.9664 241.297 72.8504 241.645 72.7741C241.997 72.6946 242.35 72.6316 242.704 72.5852C243.168 72.5256 243.545 72.4808 243.833 72.451C244.125 72.4179 244.337 72.3632 244.469 72.2869C244.605 72.2107 244.673 72.0781 244.673 71.8892V71.8494C244.673 71.3589 244.539 70.9777 244.27 70.706C244.005 70.4342 243.603 70.2983 243.062 70.2983C242.502 70.2983 242.063 70.4209 241.745 70.6662C241.427 70.9115 241.203 71.1733 241.074 71.4517L239.96 71.054C240.159 70.59 240.424 70.2287 240.756 69.9702C241.09 69.7083 241.455 69.526 241.849 69.4233C242.247 69.3172 242.638 69.2642 243.023 69.2642C243.268 69.2642 243.55 69.294 243.868 69.3537C244.189 69.41 244.499 69.5277 244.797 69.7067C245.099 69.8857 245.349 70.1558 245.548 70.517C245.747 70.8783 245.846 71.3622 245.846 71.9688V77H244.673V75.9659H244.613C244.534 76.1316 244.401 76.3089 244.216 76.4979C244.03 76.6868 243.783 76.8475 243.475 76.9801C243.167 77.1127 242.791 77.179 242.346 77.179ZM242.525 76.125C242.989 76.125 243.381 76.0339 243.699 75.8516C244.02 75.6693 244.262 75.4339 244.425 75.1456C244.59 74.8572 244.673 74.554 244.673 74.2358V73.1619C244.623 73.2216 244.514 73.2763 244.345 73.326C244.179 73.3724 243.987 73.4138 243.768 73.4503C243.553 73.4834 243.342 73.5133 243.137 73.5398C242.935 73.563 242.771 73.5829 242.645 73.5994C242.34 73.6392 242.055 73.7038 241.79 73.7933C241.528 73.8795 241.316 74.0104 241.153 74.1861C240.994 74.3584 240.915 74.5937 240.915 74.892C240.915 75.2997 241.065 75.608 241.367 75.8168C241.672 76.0223 242.058 76.125 242.525 76.125ZM249.161 72.4062V77H247.988V69.3636H249.121V70.5568H249.221C249.4 70.169 249.672 69.8575 250.036 69.6222C250.401 69.3835 250.871 69.2642 251.448 69.2642C251.965 69.2642 252.418 69.3703 252.805 69.5824C253.193 69.7912 253.495 70.1094 253.71 70.5369C253.926 70.9612 254.033 71.4981 254.033 72.1477V77H252.86V72.2273C252.86 71.6274 252.704 71.16 252.393 70.8253C252.081 70.4872 251.654 70.3182 251.11 70.3182C250.736 70.3182 250.401 70.3994 250.106 70.5618C249.814 70.7242 249.584 70.9612 249.415 71.2727C249.246 71.5843 249.161 71.9621 249.161 72.4062ZM259.061 77.1591C258.425 77.1591 257.863 76.9983 257.376 76.6768C256.888 76.352 256.507 75.8946 256.232 75.3047C255.957 74.7114 255.819 74.0104 255.819 73.2017C255.819 72.3996 255.957 71.7036 256.232 71.1136C256.507 70.5237 256.89 70.0679 257.381 69.7464C257.871 69.425 258.438 69.2642 259.081 69.2642C259.578 69.2642 259.971 69.3471 260.259 69.5128C260.551 69.6752 260.773 69.8608 260.925 70.0696C261.081 70.2751 261.202 70.4441 261.288 70.5767H261.388V66.8182H262.561V77H261.427V75.8267H261.288C261.202 75.9659 261.079 76.1416 260.92 76.3537C260.761 76.5625 260.534 76.7498 260.239 76.9155C259.944 77.0779 259.551 77.1591 259.061 77.1591ZM259.22 76.1051C259.691 76.1051 260.088 75.9825 260.413 75.7372C260.738 75.4886 260.985 75.1456 261.154 74.7081C261.323 74.2673 261.407 73.7585 261.407 73.1818C261.407 72.6117 261.325 72.1129 261.159 71.6854C260.993 71.2545 260.748 70.9197 260.423 70.6811C260.098 70.4392 259.697 70.3182 259.22 70.3182C258.723 70.3182 258.309 70.4458 257.977 70.701C257.649 70.9529 257.402 71.2959 257.236 71.7301C257.074 72.161 256.993 72.6449 256.993 73.1818C256.993 73.7254 257.076 74.2192 257.241 74.6634C257.41 75.1042 257.659 75.4555 257.987 75.7173C258.318 75.9759 258.729 76.1051 259.22 76.1051ZM264.873 77V69.3636H266.046V77H264.873ZM265.469 68.0909C265.241 68.0909 265.043 68.013 264.878 67.8572C264.715 67.7015 264.634 67.5142 264.634 67.2955C264.634 67.0767 264.715 66.8894 264.878 66.7337C265.043 66.5779 265.241 66.5 265.469 66.5C265.698 66.5 265.894 66.5779 266.056 66.7337C266.222 66.8894 266.305 67.0767 266.305 67.2955C266.305 67.5142 266.222 67.7015 266.056 67.8572C265.894 68.013 265.698 68.0909 265.469 68.0909ZM269.368 72.4062V77H268.195V69.3636H269.328V70.5568H269.428C269.607 70.169 269.879 69.8575 270.243 69.6222C270.608 69.3835 271.078 69.2642 271.655 69.2642C272.172 69.2642 272.625 69.3703 273.012 69.5824C273.4 69.7912 273.702 70.1094 273.917 70.5369C274.133 70.9612 274.24 71.4981 274.24 72.1477V77H273.067V72.2273C273.067 71.6274 272.911 71.16 272.6 70.8253C272.288 70.4872 271.861 70.3182 271.317 70.3182C270.943 70.3182 270.608 70.3994 270.313 70.5618C270.021 70.7242 269.791 70.9612 269.622 71.2727C269.453 71.5843 269.368 71.9621 269.368 72.4062ZM279.467 80.0227C278.9 80.0227 278.413 79.9498 278.005 79.804C277.597 79.6615 277.258 79.4725 276.986 79.2372C276.718 79.0052 276.504 78.7566 276.345 78.4915L277.279 77.8352C277.385 77.9744 277.52 78.1335 277.682 78.3125C277.844 78.4948 278.066 78.6522 278.348 78.7848C278.633 78.9207 279.006 78.9886 279.467 78.9886C280.083 78.9886 280.592 78.8395 280.993 78.5412C281.394 78.2429 281.595 77.7756 281.595 77.1392V75.5881H281.495C281.409 75.7273 281.286 75.8996 281.127 76.1051C280.972 76.3073 280.746 76.4879 280.451 76.647C280.16 76.8028 279.765 76.8807 279.268 76.8807C278.651 76.8807 278.098 76.7348 277.607 76.4432C277.12 76.1515 276.734 75.7273 276.449 75.1705C276.167 74.6136 276.026 73.9375 276.026 73.142C276.026 72.3598 276.164 71.6787 276.439 71.0987C276.714 70.5154 277.097 70.0646 277.588 69.7464C278.078 69.425 278.645 69.2642 279.288 69.2642C279.785 69.2642 280.179 69.3471 280.471 69.5128C280.766 69.6752 280.991 69.8608 281.147 70.0696C281.306 70.2751 281.429 70.4441 281.515 70.5767H281.634V69.3636H282.768V77.2188C282.768 77.875 282.619 78.4086 282.32 78.8196C282.026 79.2339 281.628 79.5372 281.127 79.7294C280.63 79.925 280.077 80.0227 279.467 80.0227ZM279.427 75.8267C279.898 75.8267 280.295 75.719 280.62 75.5036C280.945 75.2881 281.192 74.9782 281.361 74.5739C281.53 74.1695 281.615 73.6856 281.615 73.1222C281.615 72.572 281.532 72.0864 281.366 71.6655C281.2 71.2446 280.955 70.9148 280.63 70.6761C280.305 70.4375 279.904 70.3182 279.427 70.3182C278.93 70.3182 278.516 70.4441 278.184 70.696C277.856 70.9479 277.609 71.286 277.443 71.7102C277.281 72.1345 277.2 72.6051 277.2 73.1222C277.2 73.6525 277.283 74.1214 277.448 74.5291C277.617 74.9335 277.866 75.2517 278.194 75.4837C278.526 75.7124 278.936 75.8267 279.427 75.8267ZM16.2472 92.4062V97H15.0739V86.8182H16.2472V90.5568H16.3466C16.5256 90.1624 16.794 89.8492 17.152 89.6172C17.5133 89.3819 17.9938 89.2642 18.5938 89.2642C19.1141 89.2642 19.5698 89.3686 19.9609 89.5774C20.352 89.7829 20.6553 90.0994 20.8707 90.527C21.0895 90.9512 21.1989 91.4915 21.1989 92.1477V97H20.0256V92.2273C20.0256 91.6207 19.8681 91.1518 19.5533 90.8203C19.2417 90.4856 18.8092 90.3182 18.2557 90.3182C17.8712 90.3182 17.5265 90.3994 17.2216 90.5618C16.92 90.7242 16.6813 90.9612 16.5057 91.2727C16.3333 91.5843 16.2472 91.9621 16.2472 92.4062ZM26.4476 97.1591C25.7582 97.1591 25.1534 96.995 24.633 96.6669C24.1159 96.3388 23.7116 95.8797 23.4199 95.2898C23.1316 94.6998 22.9874 94.0104 22.9874 93.2216C22.9874 92.4261 23.1316 91.7318 23.4199 91.1385C23.7116 90.5452 24.1159 90.0845 24.633 89.7564C25.1534 89.4283 25.7582 89.2642 26.4476 89.2642C27.137 89.2642 27.7402 89.4283 28.2573 89.7564C28.7776 90.0845 29.182 90.5452 29.4703 91.1385C29.762 91.7318 29.9078 92.4261 29.9078 93.2216C29.9078 94.0104 29.762 94.6998 29.4703 95.2898C29.182 95.8797 28.7776 96.3388 28.2573 96.6669C27.7402 96.995 27.137 97.1591 26.4476 97.1591ZM26.4476 96.1051C26.9713 96.1051 27.4022 95.9709 27.7402 95.7024C28.0783 95.4339 28.3285 95.081 28.4909 94.6435C28.6534 94.206 28.7346 93.732 28.7346 93.2216C28.7346 92.7112 28.6534 92.2356 28.4909 91.7947C28.3285 91.3539 28.0783 90.9976 27.7402 90.7259C27.4022 90.4541 26.9713 90.3182 26.4476 90.3182C25.9239 90.3182 25.4931 90.4541 25.155 90.7259C24.8169 90.9976 24.5667 91.3539 24.4043 91.7947C24.2419 92.2356 24.1607 92.7112 24.1607 93.2216C24.1607 93.732 24.2419 94.206 24.4043 94.6435C24.5667 95.081 24.8169 95.4339 25.155 95.7024C25.4931 95.9709 25.9239 96.1051 26.4476 96.1051ZM33.1692 97L30.8425 89.3636H32.0755L33.726 95.2102H33.8056L35.4363 89.3636H36.6891L38.2999 95.1903H38.3794L40.03 89.3636H41.263L38.9363 97H37.7828L36.1124 91.1335H35.9931L34.3226 97H33.1692ZM48.9988 97.179C48.5149 97.179 48.0757 97.0878 47.6813 96.9055C47.2869 96.7199 46.9737 96.4531 46.7417 96.1051C46.5096 95.7538 46.3936 95.3295 46.3936 94.8324C46.3936 94.3949 46.4798 94.0402 46.6522 93.7685C46.8245 93.4934 47.0549 93.2779 47.3432 93.1222C47.6316 92.9664 47.9498 92.8504 48.2978 92.7741C48.6491 92.6946 49.0021 92.6316 49.3567 92.5852C49.8207 92.5256 50.1969 92.4808 50.4853 92.451C50.7769 92.4179 50.9891 92.3632 51.1216 92.2869C51.2575 92.2107 51.3255 92.0781 51.3255 91.8892V91.8494C51.3255 91.3589 51.1912 90.9777 50.9228 90.706C50.6576 90.4342 50.2549 90.2983 49.7147 90.2983C49.1545 90.2983 48.7154 90.4209 48.3972 90.6662C48.079 90.9115 47.8553 91.1733 47.726 91.4517L46.6124 91.054C46.8113 90.59 47.0764 90.2287 47.4078 89.9702C47.7426 89.7083 48.1072 89.526 48.5016 89.4233C48.8993 89.3172 49.2904 89.2642 49.6749 89.2642C49.9202 89.2642 50.2019 89.294 50.5201 89.3537C50.8416 89.41 51.1515 89.5277 51.4498 89.7067C51.7514 89.8857 52.0016 90.1558 52.2005 90.517C52.3993 90.8783 52.4988 91.3622 52.4988 91.9688V97H51.3255V95.9659H51.2658C51.1863 96.1316 51.0537 96.3089 50.8681 96.4979C50.6825 96.6868 50.4355 96.8475 50.1273 96.9801C49.8191 97.1127 49.4429 97.179 48.9988 97.179ZM49.1777 96.125C49.6417 96.125 50.0328 96.0339 50.351 95.8516C50.6725 95.6693 50.9145 95.4339 51.0769 95.1456C51.2426 94.8572 51.3255 94.554 51.3255 94.2358V93.1619C51.2757 93.2216 51.1664 93.2763 50.9973 93.326C50.8316 93.3724 50.6394 93.4138 50.4206 93.4503C50.2052 93.4834 49.9947 93.5133 49.7892 93.5398C49.5871 93.563 49.423 93.5829 49.2971 93.5994C48.9921 93.6392 48.7071 93.7038 48.4419 93.7933C48.1801 93.8795 47.968 94.0104 47.8056 94.1861C47.6465 94.3584 47.5669 94.5937 47.5669 94.892C47.5669 95.2997 47.7177 95.608 48.0194 95.8168C48.3243 96.0223 48.7104 96.125 49.1777 96.125ZM61.68 97.1591C60.9641 97.1591 60.3477 96.9901 59.8306 96.652C59.3136 96.3139 58.9158 95.8482 58.6374 95.255C58.359 94.6617 58.2198 93.9839 58.2198 93.2216C58.2198 92.446 58.3623 91.7616 58.6474 91.1683C58.9357 90.5717 59.3368 90.1061 59.8505 89.7713C60.3675 89.4332 60.9708 89.2642 61.6602 89.2642C62.1971 89.2642 62.681 89.3636 63.1119 89.5625C63.5427 89.7614 63.8957 90.0398 64.1708 90.3977C64.4459 90.7557 64.6166 91.1733 64.6829 91.6506H63.5096C63.4201 91.3026 63.2212 90.9943 62.913 90.7259C62.6081 90.4541 62.1971 90.3182 61.68 90.3182C61.2227 90.3182 60.8216 90.4375 60.4769 90.6761C60.1355 90.9115 59.8687 91.2446 59.6765 91.6754C59.4876 92.103 59.3931 92.6051 59.3931 93.1818C59.3931 93.7718 59.4859 94.2855 59.6715 94.723C59.8604 95.1605 60.1256 95.5002 60.467 95.7422C60.8117 95.9841 61.216 96.1051 61.68 96.1051C61.985 96.1051 62.2617 96.0521 62.5103 95.946C62.7589 95.84 62.9693 95.6875 63.1417 95.4886C63.314 95.2898 63.4367 95.0511 63.5096 94.7727H64.6829C64.6166 95.2235 64.4525 95.6295 64.1907 95.9908C63.9322 96.3487 63.5891 96.6338 63.1616 96.8459C62.7373 97.0547 62.2435 97.1591 61.68 97.1591ZM69.5998 97.1591C68.864 97.1591 68.2293 96.9967 67.6957 96.6719C67.1654 96.3438 66.756 95.8864 66.4677 95.2997C66.1826 94.7098 66.0401 94.0237 66.0401 93.2415C66.0401 92.4593 66.1826 91.7699 66.4677 91.1733C66.756 90.5734 67.1571 90.1061 67.6708 89.7713C68.1879 89.4332 68.7911 89.2642 69.4805 89.2642C69.8782 89.2642 70.271 89.3305 70.6587 89.4631C71.0465 89.5956 71.3995 89.8111 71.7177 90.1094C72.0359 90.4044 72.2894 90.7955 72.4783 91.2827C72.6673 91.7699 72.7617 92.3698 72.7617 93.0824V93.5795H66.8754V92.5653H71.5685C71.5685 92.1345 71.4824 91.75 71.31 91.4119C71.141 91.0739 70.899 90.8071 70.5842 90.6115C70.2726 90.416 69.9047 90.3182 69.4805 90.3182C69.0131 90.3182 68.6088 90.4342 68.2674 90.6662C67.9293 90.8949 67.6692 91.1932 67.4869 91.5611C67.3046 91.929 67.2134 92.3234 67.2134 92.7443V93.4205C67.2134 93.9972 67.3129 94.486 67.5117 94.8871C67.7139 95.2848 67.994 95.5881 68.3519 95.7969C68.7099 96.0024 69.1258 96.1051 69.5998 96.1051C69.908 96.1051 70.1864 96.062 70.435 95.9759C70.6869 95.8864 70.904 95.7538 71.0863 95.5781C71.2686 95.3991 71.4094 95.1771 71.5089 94.9119L72.6424 95.2301C72.5231 95.6146 72.3226 95.9527 72.0408 96.2443C71.7591 96.5327 71.4111 96.758 70.9968 96.9205C70.5825 97.0795 70.1168 97.1591 69.5998 97.1591ZM74.5465 97V89.3636H75.68V90.517H75.7596C75.8988 90.1392 76.1507 89.8326 76.5153 89.5973C76.8799 89.362 77.2908 89.2443 77.7482 89.2443C77.8344 89.2443 77.9421 89.246 78.0714 89.2493C78.2006 89.2526 78.2984 89.2576 78.3647 89.2642V90.4574C78.3249 90.4474 78.2338 90.4325 78.0913 90.4126C77.9521 90.3894 77.8046 90.3778 77.6488 90.3778C77.2776 90.3778 76.9461 90.4557 76.6545 90.6115C76.3661 90.764 76.1374 90.9761 75.9684 91.2479C75.8027 91.5163 75.7198 91.8229 75.7198 92.1676V97H74.5465ZM83.555 89.3636V90.358H79.5977V89.3636H83.555ZM80.7511 87.5341H81.9244V94.8125C81.9244 95.1439 81.9724 95.3925 82.0685 95.5582C82.168 95.7206 82.2939 95.83 82.4464 95.8864C82.6022 95.9394 82.7662 95.9659 82.9386 95.9659C83.0678 95.9659 83.1739 95.9593 83.2567 95.946C83.3396 95.9295 83.4059 95.9162 83.4556 95.9062L83.6942 96.9602C83.6147 96.9901 83.5037 97.0199 83.3612 97.0497C83.2186 97.0829 83.038 97.0994 82.8192 97.0994C82.4878 97.0994 82.163 97.0282 81.8448 96.8857C81.5299 96.7431 81.2681 96.526 81.0593 96.2344C80.8538 95.9427 80.7511 95.5748 80.7511 95.1307V87.5341ZM87.5671 97.179C87.0832 97.179 86.6441 97.0878 86.2496 96.9055C85.8552 96.7199 85.542 96.4531 85.31 96.1051C85.078 95.7538 84.962 95.3295 84.962 94.8324C84.962 94.3949 85.0482 94.0402 85.2205 93.7685C85.3929 93.4934 85.6232 93.2779 85.9116 93.1222C86.1999 92.9664 86.5181 92.8504 86.8661 92.7741C87.2174 92.6946 87.5704 92.6316 87.9251 92.5852C88.3891 92.5256 88.7653 92.4808 89.0536 92.451C89.3453 92.4179 89.5574 92.3632 89.69 92.2869C89.8259 92.2107 89.8938 92.0781 89.8938 91.8892V91.8494C89.8938 91.3589 89.7596 90.9777 89.4911 90.706C89.226 90.4342 88.8233 90.2983 88.283 90.2983C87.7229 90.2983 87.2837 90.4209 86.9656 90.6662C86.6474 90.9115 86.4237 91.1733 86.2944 91.4517L85.1808 91.054C85.3796 90.59 85.6448 90.2287 85.9762 89.9702C86.311 89.7083 86.6755 89.526 87.07 89.4233C87.4677 89.3172 87.8588 89.2642 88.2433 89.2642C88.4885 89.2642 88.7702 89.294 89.0884 89.3537C89.4099 89.41 89.7198 89.5277 90.0181 89.7067C90.3197 89.8857 90.57 90.1558 90.7688 90.517C90.9677 90.8783 91.0671 91.3622 91.0671 91.9688V97H89.8938V95.9659H89.8342C89.7546 96.1316 89.622 96.3089 89.4364 96.4979C89.2508 96.6868 89.0039 96.8475 88.6957 96.9801C88.3874 97.1127 88.0112 97.179 87.5671 97.179ZM87.7461 96.125C88.2101 96.125 88.6012 96.0339 88.9194 95.8516C89.2409 95.6693 89.4828 95.4339 89.6452 95.1456C89.811 94.8572 89.8938 94.554 89.8938 94.2358V93.1619C89.8441 93.2216 89.7347 93.2763 89.5657 93.326C89.4 93.3724 89.2077 93.4138 88.989 93.4503C88.7736 93.4834 88.5631 93.5133 88.3576 93.5398C88.1554 93.563 87.9914 93.5829 87.8654 93.5994C87.5605 93.6392 87.2754 93.7038 87.0103 93.7933C86.7485 93.8795 86.5363 94.0104 86.3739 94.1861C86.2148 94.3584 86.1353 94.5937 86.1353 94.892C86.1353 95.2997 86.2861 95.608 86.5877 95.8168C86.8926 96.0223 87.2788 96.125 87.7461 96.125ZM93.2086 97V89.3636H94.3819V97H93.2086ZM93.8052 88.0909C93.5765 88.0909 93.3793 88.013 93.2136 87.8572C93.0512 87.7015 92.97 87.5142 92.97 87.2955C92.97 87.0767 93.0512 86.8894 93.2136 86.7337C93.3793 86.5779 93.5765 86.5 93.8052 86.5C94.0339 86.5 94.2295 86.5779 94.3919 86.7337C94.5576 86.8894 94.6404 87.0767 94.6404 87.2955C94.6404 87.5142 94.5576 87.7015 94.3919 87.8572C94.2295 88.013 94.0339 88.0909 93.8052 88.0909ZM97.7042 92.4062V97H96.5309V89.3636H97.6644V90.5568H97.7638C97.9428 90.169 98.2146 89.8575 98.5792 89.6222C98.9438 89.3835 99.4144 89.2642 99.9911 89.2642C100.508 89.2642 100.961 89.3703 101.348 89.5824C101.736 89.7912 102.038 90.1094 102.253 90.5369C102.469 90.9612 102.576 91.4981 102.576 92.1477V97H101.403V92.2273C101.403 91.6274 101.247 91.16 100.936 90.8253C100.624 90.4872 100.197 90.3182 99.6531 90.3182C99.2785 90.3182 98.9438 90.3994 98.6488 90.5618C98.3571 90.7242 98.1268 90.9612 97.9577 91.2727C97.7887 91.5843 97.7042 91.9621 97.7042 92.4062ZM112.058 89.3636V90.358H107.942V89.3636H112.058ZM109.175 97V88.3097C109.175 87.8722 109.278 87.5076 109.483 87.2159C109.689 86.9242 109.955 86.7055 110.284 86.5597C110.612 86.4138 110.958 86.3409 111.323 86.3409C111.611 86.3409 111.846 86.3641 112.029 86.4105C112.211 86.4569 112.347 86.5 112.436 86.5398L112.098 87.554C112.039 87.5341 111.956 87.5092 111.85 87.4794C111.747 87.4496 111.611 87.4347 111.442 87.4347C111.054 87.4347 110.774 87.5324 110.602 87.728C110.433 87.9235 110.348 88.2102 110.348 88.5881V97H109.175ZM116.59 97.1591C115.854 97.1591 115.22 96.9967 114.686 96.6719C114.156 96.3438 113.746 95.8864 113.458 95.2997C113.173 94.7098 113.03 94.0237 113.03 93.2415C113.03 92.4593 113.173 91.7699 113.458 91.1733C113.746 90.5734 114.147 90.1061 114.661 89.7713C115.178 89.4332 115.781 89.2642 116.471 89.2642C116.868 89.2642 117.261 89.3305 117.649 89.4631C118.037 89.5956 118.39 89.8111 118.708 90.1094C119.026 90.4044 119.28 90.7955 119.469 91.2827C119.657 91.7699 119.752 92.3698 119.752 93.0824V93.5795H113.866V92.5653H118.559C118.559 92.1345 118.473 91.75 118.3 91.4119C118.131 91.0739 117.889 90.8071 117.574 90.6115C117.263 90.416 116.895 90.3182 116.471 90.3182C116.003 90.3182 115.599 90.4342 115.258 90.6662C114.92 90.8949 114.659 91.1932 114.477 91.5611C114.295 91.929 114.204 92.3234 114.204 92.7443V93.4205C114.204 93.9972 114.303 94.486 114.502 94.8871C114.704 95.2848 114.984 95.5881 115.342 95.7969C115.7 96.0024 116.116 96.1051 116.59 96.1051C116.898 96.1051 117.177 96.062 117.425 95.9759C117.677 95.8864 117.894 95.7538 118.077 95.5781C118.259 95.3991 118.4 95.1771 118.499 94.9119L119.633 95.2301C119.513 95.6146 119.313 95.9527 119.031 96.2443C118.749 96.5327 118.401 96.758 117.987 96.9205C117.573 97.0795 117.107 97.1591 116.59 97.1591ZM123.784 97.179C123.3 97.179 122.861 97.0878 122.466 96.9055C122.072 96.7199 121.759 96.4531 121.527 96.1051C121.295 95.7538 121.179 95.3295 121.179 94.8324C121.179 94.3949 121.265 94.0402 121.437 93.7685C121.61 93.4934 121.84 93.2779 122.128 93.1222C122.417 92.9664 122.735 92.8504 123.083 92.7741C123.434 92.6946 123.787 92.6316 124.142 92.5852C124.606 92.5256 124.982 92.4808 125.27 92.451C125.562 92.4179 125.774 92.3632 125.907 92.2869C126.043 92.2107 126.111 92.0781 126.111 91.8892V91.8494C126.111 91.3589 125.976 90.9777 125.708 90.706C125.443 90.4342 125.04 90.2983 124.5 90.2983C123.94 90.2983 123.501 90.4209 123.182 90.6662C122.864 90.9115 122.64 91.1733 122.511 91.4517L121.398 91.054C121.596 90.59 121.862 90.2287 122.193 89.9702C122.528 89.7083 122.892 89.526 123.287 89.4233C123.684 89.3172 124.076 89.2642 124.46 89.2642C124.705 89.2642 124.987 89.294 125.305 89.3537C125.627 89.41 125.937 89.5277 126.235 89.7067C126.537 89.8857 126.787 90.1558 126.986 90.517C127.184 90.8783 127.284 91.3622 127.284 91.9688V97H126.111V95.9659H126.051C125.971 96.1316 125.839 96.3089 125.653 96.4979C125.468 96.6868 125.221 96.8475 124.912 96.9801C124.604 97.1127 124.228 97.179 123.784 97.179ZM123.963 96.125C124.427 96.125 124.818 96.0339 125.136 95.8516C125.458 95.6693 125.7 95.4339 125.862 95.1456C126.028 94.8572 126.111 94.554 126.111 94.2358V93.1619C126.061 93.2216 125.952 93.2763 125.782 93.326C125.617 93.3724 125.425 93.4138 125.206 93.4503C124.99 93.4834 124.78 93.5133 124.574 93.5398C124.372 93.563 124.208 93.5829 124.082 93.5994C123.777 93.6392 123.492 93.7038 123.227 93.7933C122.965 93.8795 122.753 94.0104 122.591 94.1861C122.432 94.3584 122.352 94.5937 122.352 94.892C122.352 95.2997 122.503 95.608 122.805 95.8168C123.109 96.0223 123.496 96.125 123.963 96.125ZM132.746 89.3636V90.358H128.789V89.3636H132.746ZM129.942 87.5341H131.116V94.8125C131.116 95.1439 131.164 95.3925 131.26 95.5582C131.359 95.7206 131.485 95.83 131.638 95.8864C131.794 95.9394 131.958 95.9659 132.13 95.9659C132.259 95.9659 132.365 95.9593 132.448 95.946C132.531 95.9295 132.597 95.9162 132.647 95.9062L132.886 96.9602C132.806 96.9901 132.695 97.0199 132.553 97.0497C132.41 97.0829 132.229 97.0994 132.011 97.0994C131.679 97.0994 131.354 97.0282 131.036 96.8857C130.721 96.7431 130.46 96.526 130.251 96.2344C130.045 95.9427 129.942 95.5748 129.942 95.1307V87.5341ZM139.324 93.8778V89.3636H140.497V97H139.324V95.7074H139.244C139.065 96.0952 138.787 96.425 138.409 96.6967C138.031 96.9652 137.554 97.0994 136.977 97.0994C136.5 97.0994 136.076 96.995 135.705 96.7862C135.333 96.5741 135.042 96.2559 134.83 95.8317C134.617 95.4041 134.511 94.8655 134.511 94.2159V89.3636H135.685V94.1364C135.685 94.6932 135.84 95.1373 136.152 95.4688C136.467 95.8002 136.868 95.9659 137.355 95.9659C137.647 95.9659 137.943 95.8913 138.245 95.7422C138.55 95.593 138.805 95.3643 139.011 95.0561C139.219 94.7479 139.324 94.3551 139.324 93.8778ZM142.646 97V89.3636H143.78V90.517H143.859C143.998 90.1392 144.25 89.8326 144.615 89.5973C144.979 89.362 145.39 89.2443 145.848 89.2443C145.934 89.2443 146.042 89.246 146.171 89.2493C146.3 89.2526 146.398 89.2576 146.464 89.2642V90.4574C146.425 90.4474 146.333 90.4325 146.191 90.4126C146.052 90.3894 145.904 90.3778 145.748 90.3778C145.377 90.3778 145.046 90.4557 144.754 90.6115C144.466 90.764 144.237 90.9761 144.068 91.2479C143.902 91.5163 143.819 91.8229 143.819 92.1676V97H142.646ZM150.824 97.1591C150.089 97.1591 149.454 96.9967 148.92 96.6719C148.39 96.3438 147.981 95.8864 147.692 95.2997C147.407 94.7098 147.265 94.0237 147.265 93.2415C147.265 92.4593 147.407 91.7699 147.692 91.1733C147.981 90.5734 148.382 90.1061 148.895 89.7713C149.412 89.4332 150.016 89.2642 150.705 89.2642C151.103 89.2642 151.496 89.3305 151.883 89.4631C152.271 89.5956 152.624 89.8111 152.942 90.1094C153.26 90.4044 153.514 90.7955 153.703 91.2827C153.892 91.7699 153.986 92.3698 153.986 93.0824V93.5795H148.1V92.5653H152.793C152.793 92.1345 152.707 91.75 152.535 91.4119C152.366 91.0739 152.124 90.8071 151.809 90.6115C151.497 90.416 151.129 90.3182 150.705 90.3182C150.238 90.3182 149.833 90.4342 149.492 90.6662C149.154 90.8949 148.894 91.1932 148.711 91.5611C148.529 91.929 148.438 92.3234 148.438 92.7443V93.4205C148.438 93.9972 148.537 94.486 148.736 94.8871C148.939 95.2848 149.219 95.5881 149.577 95.7969C149.934 96.0024 150.35 96.1051 150.824 96.1051C151.133 96.1051 151.411 96.062 151.66 95.9759C151.912 95.8864 152.129 95.7538 152.311 95.5781C152.493 95.3991 152.634 95.1771 152.733 94.9119L153.867 95.2301C153.748 95.6146 153.547 95.9527 153.265 96.2443C152.984 96.5327 152.636 96.758 152.221 96.9205C151.807 97.0795 151.341 97.1591 150.824 97.1591ZM161.439 97L159.112 89.3636H160.345L161.996 95.2102H162.075L163.706 89.3636H164.959L166.569 95.1903H166.649L168.3 89.3636H169.532L167.206 97H166.052L164.382 91.1335H164.263L162.592 97H161.439ZM173.926 97.1591C173.237 97.1591 172.632 96.995 172.112 96.6669C171.594 96.3388 171.19 95.8797 170.898 95.2898C170.61 94.6998 170.466 94.0104 170.466 93.2216C170.466 92.4261 170.61 91.7318 170.898 91.1385C171.19 90.5452 171.594 90.0845 172.112 89.7564C172.632 89.4283 173.237 89.2642 173.926 89.2642C174.616 89.2642 175.219 89.4283 175.736 89.7564C176.256 90.0845 176.661 90.5452 176.949 91.1385C177.241 91.7318 177.386 92.4261 177.386 93.2216C177.386 94.0104 177.241 94.6998 176.949 95.2898C176.661 95.8797 176.256 96.3388 175.736 96.6669C175.219 96.995 174.616 97.1591 173.926 97.1591ZM173.926 96.1051C174.45 96.1051 174.881 95.9709 175.219 95.7024C175.557 95.4339 175.807 95.081 175.969 94.6435C176.132 94.206 176.213 93.732 176.213 93.2216C176.213 92.7112 176.132 92.2356 175.969 91.7947C175.807 91.3539 175.557 90.9976 175.219 90.7259C174.881 90.4541 174.45 90.3182 173.926 90.3182C173.402 90.3182 172.972 90.4541 172.634 90.7259C172.295 90.9976 172.045 91.3539 171.883 91.7947C171.72 92.2356 171.639 92.7112 171.639 93.2216C171.639 93.732 171.72 94.206 171.883 94.6435C172.045 95.081 172.295 95.4339 172.634 95.7024C172.972 95.9709 173.402 96.1051 173.926 96.1051ZM179.177 97V89.3636H180.311V90.517H180.39C180.53 90.1392 180.782 89.8326 181.146 89.5973C181.511 89.362 181.922 89.2443 182.379 89.2443C182.465 89.2443 182.573 89.246 182.702 89.2493C182.831 89.2526 182.929 89.2576 182.996 89.2642V90.4574C182.956 90.4474 182.865 90.4325 182.722 90.4126C182.583 90.3894 182.435 90.3778 182.28 90.3778C181.908 90.3778 181.577 90.4557 181.285 90.6115C180.997 90.764 180.768 90.9761 180.599 91.2479C180.434 91.5163 180.351 91.8229 180.351 92.1676V97H179.177ZM185.48 94.2159L185.46 92.7642H185.699L189.04 89.3636H190.491L186.932 92.9631H186.832L185.48 94.2159ZM184.386 97V86.8182H185.56V97H184.386ZM189.239 97L186.256 93.2216L187.091 92.4062L190.73 97H189.239ZM197.411 91.0739L196.357 91.3722C196.29 91.1965 196.193 91.0258 196.063 90.8601C195.937 90.6911 195.765 90.5518 195.546 90.4425C195.328 90.3331 195.048 90.2784 194.706 90.2784C194.239 90.2784 193.849 90.3861 193.538 90.6016C193.23 90.8137 193.075 91.0838 193.075 91.4119C193.075 91.7036 193.182 91.9339 193.394 92.103C193.606 92.272 193.937 92.4129 194.388 92.5256L195.521 92.804C196.204 92.9697 196.713 93.2232 197.048 93.5646C197.383 93.9027 197.55 94.3385 197.55 94.8722C197.55 95.3097 197.424 95.7008 197.172 96.0455C196.923 96.3902 196.575 96.6619 196.128 96.8608C195.681 97.0597 195.16 97.1591 194.567 97.1591C193.788 97.1591 193.143 96.9901 192.633 96.652C192.123 96.3139 191.799 95.8201 191.664 95.1705L192.777 94.892C192.883 95.303 193.084 95.6113 193.379 95.8168C193.677 96.0223 194.066 96.125 194.547 96.125C195.094 96.125 195.528 96.009 195.85 95.777C196.174 95.5417 196.337 95.2599 196.337 94.9318C196.337 94.6667 196.244 94.4446 196.058 94.2656C195.873 94.0833 195.588 93.9474 195.203 93.858L193.931 93.5597C193.231 93.3939 192.718 93.1371 192.389 92.7891C192.065 92.4377 191.902 91.9986 191.902 91.4716C191.902 91.0407 192.023 90.6596 192.265 90.3281C192.51 89.9967 192.843 89.7365 193.264 89.5476C193.689 89.3587 194.169 89.2642 194.706 89.2642C195.462 89.2642 196.055 89.4299 196.486 89.7614C196.92 90.0928 197.228 90.5303 197.411 91.0739ZM200.171 97.0795C199.926 97.0795 199.715 96.9917 199.54 96.8161C199.364 96.6404 199.276 96.4299 199.276 96.1847C199.276 95.9394 199.364 95.7289 199.54 95.5533C199.715 95.3776 199.926 95.2898 200.171 95.2898C200.416 95.2898 200.627 95.3776 200.803 95.5533C200.978 95.7289 201.066 95.9394 201.066 96.1847C201.066 96.3471 201.025 96.4962 200.942 96.6321C200.862 96.768 200.754 96.8774 200.619 96.9602C200.486 97.0398 200.337 97.0795 200.171 97.0795Z" fill="#676E76"/>
</g>
<g id="heroicons-outline/x-mark">
<path id="Vector" d="M295.5 24.5L302.5 17.5M295.5 17.5L302.5 24.5" stroke="black" stroke-width="1.5" stroke-linecap="round" stroke-linejoin="round"/>
</g>
</g>
</g>
<defs>
<filter id="filter0_dd_446_23914" x="-35" y="-20" width="390" height="186" filterUnits="userSpaceOnUse" color-interpolation-filters="sRGB">
<feFlood flood-opacity="0" result="BackgroundImageFix"/>
<feColorMatrix in="SourceAlpha" type="matrix" values="0 0 0 0 0 0 0 0 0 0 0 0 0 0 0 0 0 0 127 0" result="hardAlpha"/>
<feOffset dy="15"/>
<feGaussianBlur stdDeviation="17.5"/>
<feComposite in2="hardAlpha" operator="out"/>
<feColorMatrix type="matrix" values="0 0 0 0 0.403922 0 0 0 0 0.431373 0 0 0 0 0.462745 0 0 0 0.08 0"/>
<feBlend mode="normal" in2="BackgroundImageFix" result="effect1_dropShadow_446_23914"/>
<feColorMatrix in="SourceAlpha" type="matrix" values="0 0 0 0 0 0 0 0 0 0 0 0 0 0 0 0 0 0 127 0" result="hardAlpha"/>
<feOffset dy="5"/>
<feGaussianBlur stdDeviation="7.5"/>
<feComposite in2="hardAlpha" operator="out"/>
<feColorMatrix type="matrix" values="0 0 0 0 0 0 0 0 0 0 0 0 0 0 0 0 0 0 0.12 0"/>
<feBlend mode="normal" in2="effect1_dropShadow_446_23914" result="effect2_dropShadow_446_23914"/>
<feBlend mode="normal" in="SourceGraphic" in2="effect2_dropShadow_446_23914" result="shape"/>
</filter>
</defs>
</svg>
